<svg width="32" height="32" viewBox="0 0 32 32" fill="none" xmlns="http://www.w3.org/2000/svg">
<path d="M16 29.3333C16 29.3333 26.6666 21.3333 26.6666 12.6667C26.6666 7.14399 21.8913 2.66666 16 2.66666C10.1086 2.66666 5.33331 7.14399 5.33331 12.6667C5.33331 21.3333 16 29.3333 16 29.3333Z" stroke="white" stroke-width="2" stroke-linejoin="round"/>
<path d="M14 9.33331V20" stroke="white" stroke-width="2" stroke-linecap="round" stroke-linejoin="round"/>
<path d="M14 9.33331H18C18.7072 9.33331 19.3855 9.61426 19.8856 10.1144C20.3857 10.6145 20.6667 11.2927 20.6667 12C20.6667 12.7072 20.3857 13.3855 19.8856 13.8856C19.3855 14.3857 18.7072 14.6666 18 14.6666H14V9.33331Z" stroke="white" stroke-width="2" stroke-linejoin="round"/>
</svg>
