<svg width="132" height="80" viewBox="0 0 132 80" fill="none" xmlns="http://www.w3.org/2000/svg">
<path d="M39.9806 72.8675H13.6962V75.6855H39.9806V72.8675Z" fill="#E0E0E0"/>
<path d="M82.2677 72.8675H55.9833V75.6855H82.2677V72.8675Z" fill="#E0E0E0"/>
<path d="M121.934 72.8675H95.6492V75.6855H121.934V72.8675Z" fill="#E0E0E0"/>
<path d="M46.6235 43.0361C43.8496 42.3404 41.4255 40.5862 40.0782 38.3002C39.4123 37.1749 39.0053 35.9155 38.8865 34.6134C38.7678 33.3113 38.9403 31.9991 39.3916 30.7719C40.1058 28.8576 41.4844 27.1735 42.0753 25.2242C42.7453 23.0154 42.3458 20.6668 41.9317 18.4046C41.5175 16.1425 41.096 13.803 41.7255 11.5832C42.355 9.36337 44.3319 7.27607 46.8793 7.11778C49.2409 6.97237 51.4202 8.54244 52.4013 10.477C53.3823 12.4115 53.3916 14.6258 53.1615 16.7352C52.9314 18.8445 52.4841 20.9686 52.624 23.0854C52.9093 27.3815 55.5874 31.4272 55.2727 35.7214C55.1089 37.9578 54.1462 39.388 52.497 41.0703C51.076 42.5208 48.7126 43.4742 46.6198 43.0288" fill="#EBEBEB"/>
<path d="M47.4684 64.3251C47.4426 64.3251 47.4242 54.8071 47.4242 43.0693C47.4242 31.3315 47.4426 21.8117 47.4684 21.8117C47.4941 21.8117 47.5125 31.3278 47.5125 43.0693C47.5125 54.8108 47.4831 64.3251 47.4684 64.3251Z" fill="#E0E0E0"/>
<path d="M47.3303 35.6091C47.1856 35.5049 47.0496 35.3892 46.9235 35.2631C46.6806 35.0422 46.3492 34.7293 46.0032 34.3722C45.6572 34.0151 45.335 33.6986 45.1031 33.4666C44.9697 33.3491 44.8465 33.2204 44.735 33.0819C44.8791 33.1869 45.0151 33.3026 45.1418 33.428C45.3847 33.6489 45.716 33.9618 46.0621 34.3189C46.4081 34.6759 46.7302 34.9925 46.9622 35.2245C47.0945 35.3431 47.2176 35.4717 47.3303 35.6091Z" fill="#E0E0E0"/>
<path d="M54.9726 62.5599H40.1941V64.2974H54.9726V62.5599Z" fill="#E0E0E0"/>
<path d="M47.5972 26.7041C47.9161 26.6301 48.2211 26.5058 48.5009 26.336C48.7881 26.1549 49.0344 25.9161 49.2243 25.6347C49.4497 25.3072 49.5855 24.9265 49.6182 24.5303C49.6182 24.5156 49.6182 24.5027 49.6182 24.4916L49.6698 24.534C49.2549 24.6037 48.8735 24.8051 48.5819 25.1083C48.3478 25.3435 48.1437 25.6069 47.9745 25.8924C47.8291 26.1317 47.7279 26.3341 47.6579 26.4722C47.6265 26.5475 47.589 26.6202 47.5457 26.6894C47.5644 26.6106 47.5916 26.5341 47.6266 26.4611C47.7116 26.2564 47.8093 26.0572 47.9193 25.8648C48.0838 25.5709 48.2862 25.2998 48.5212 25.0586C48.8238 24.7386 49.2225 24.526 49.6569 24.453H49.7121V24.5027V24.5413C49.6799 24.9531 49.5375 25.3485 49.2998 25.6862C49.1019 25.9751 48.843 26.217 48.5414 26.3949C48.3336 26.5215 48.1067 26.6141 47.8696 26.6691C47.8049 26.6856 47.7391 26.6973 47.6727 26.7041C47.623 26.7059 47.599 26.7078 47.5972 26.7041Z" fill="#E0E0E0"/>
<path d="M47.5973 26.7041C47.7821 26.441 47.9897 26.1946 48.2176 25.9678C48.4273 25.7195 48.6569 25.4886 48.9041 25.2776C48.7208 25.5413 48.5138 25.7877 48.2857 26.0139C48.0766 26.2634 47.8463 26.4944 47.5973 26.7041Z" fill="#E0E0E0"/>
<path d="M90.048 44.0338C87.022 43.3711 84.3752 41.698 82.9045 39.5187C81.4338 37.3393 81.154 34.6833 82.1553 32.3402C82.9339 30.5161 84.4396 28.9092 85.0838 27.0538C85.8201 24.9444 85.3802 22.7099 84.9274 20.5545C84.4746 18.3991 84.0162 16.1701 84.701 14.0515C85.1165 12.868 85.8718 11.8333 86.8723 11.0767C87.8727 10.3201 89.074 9.87529 90.326 9.79776C92.9029 9.65787 95.2828 11.1562 96.3578 12.9986C97.4327 14.8411 97.4401 16.9542 97.1897 18.9697C96.9394 20.9852 96.4535 23.0007 96.6026 25.0236C96.9136 29.119 99.8384 32.9733 99.4942 37.0651C99.3102 39.1966 98.2628 40.5623 96.4645 42.1637C94.9129 43.546 92.3341 44.4553 90.048 44.0301" fill="#EBEBEB"/>
<path d="M90.9611 64.3251C90.9335 64.3251 90.9114 55.2544 90.9114 44.0669C90.9114 32.8795 90.9335 23.8088 90.9611 23.8088C90.9887 23.8088 91.0089 32.8776 91.0089 44.0669C91.0089 55.2562 90.9868 64.3251 90.9611 64.3251Z" fill="#E0E0E0"/>
<path d="M90.8211 36.9583C90.6645 36.86 90.5156 36.7499 90.3757 36.6289C90.1106 36.4172 89.7499 36.119 89.3707 35.7785C88.9915 35.438 88.6344 35.1361 88.3878 34.9152C88.2464 34.8031 88.1141 34.68 87.9921 34.5471C88.1487 34.6454 88.2976 34.7555 88.4375 34.8766C88.7026 35.0882 89.0633 35.3864 89.4443 35.7269C89.8253 36.0675 90.1806 36.3693 90.4254 36.5884C90.5666 36.7013 90.6989 36.825 90.8211 36.9583Z" fill="#E0E0E0"/>
<path d="M99.1629 62.6427H83.0315V64.2975H99.1629V62.6427Z" fill="#E0E0E0"/>
<path d="M91.112 28.4711C91.4544 28.4018 91.7857 28.286 92.0967 28.1269C92.4034 27.9605 92.6727 27.7331 92.8882 27.4588C93.1304 27.1548 93.2794 26.7872 93.3171 26.4004V26.3636L93.3742 26.4041C92.9321 26.4653 92.5185 26.6576 92.1869 26.9563C91.9347 27.175 91.7119 27.4256 91.5243 27.7017C91.366 27.93 91.2537 28.1232 91.1783 28.2539C91.143 28.326 91.1018 28.395 91.0549 28.4601C91.0761 28.3846 91.1058 28.3117 91.1433 28.2429C91.2366 28.046 91.3436 27.856 91.4636 27.6741C91.6462 27.3892 91.8673 27.1309 92.1207 26.9066C92.466 26.5936 92.8977 26.3921 93.3594 26.3286H93.4202V26.3765V26.4133C93.381 26.8137 93.2241 27.1935 92.9692 27.5048C92.7437 27.7857 92.4615 28.0159 92.1409 28.1803C91.9087 28.3008 91.6609 28.3888 91.4047 28.4417C91.3336 28.4568 91.2617 28.4679 91.1893 28.4748C91.1635 28.4762 91.1376 28.4749 91.112 28.4711Z" fill="#E0E0E0"/>
<path d="M91.1119 28.4711C91.315 28.2159 91.5411 27.9799 91.7875 27.7661C92.018 27.5255 92.2693 27.3056 92.5384 27.109C92.3349 27.3639 92.1088 27.5998 91.8629 27.814C91.6312 28.0534 91.38 28.2732 91.1119 28.4711Z" fill="#E0E0E0"/>
<path d="M28.3385 16.3413C28.4766 15.34 27.063 14.5153 26.0009 14.4307C25.4929 14.3883 24.9683 14.4675 24.4879 14.3C23.4479 13.9319 23.032 12.5937 22.0178 12.1667C21.2594 11.8464 20.387 12.1317 19.6507 12.5017C18.9144 12.8716 18.1892 13.3373 17.3683 13.3889C16.6541 13.4349 15.8774 13.1698 15.2516 13.5196C14.7859 13.7791 14.5429 14.3166 14.1122 14.6239C13.6815 14.9313 13.1459 14.9921 12.6231 15.027C12.1004 15.062 11.5629 15.0602 11.088 15.2774C10.6131 15.4946 10.2211 15.9971 10.3205 16.5106L28.3385 16.3413Z" fill="#F5F5F5"/>
<path d="M131.586 64.6932C131.586 64.719 102.126 64.7411 65.7957 64.7411C29.4651 64.7411 0 64.719 0 64.6932C0 64.6674 29.4503 64.6453 65.7957 64.6453C102.141 64.6453 131.586 64.6656 131.586 64.6932Z" fill="#263238"/>
<path d="M96.8824 57.5368H92.0673V64.6932H96.8824V57.5368Z" fill="#263238"/>
<path d="M123.463 57.5368H118.648V64.6932H123.463V57.5368Z" fill="#263238"/>
<path d="M95.1246 44.8842C95.1246 44.8842 93.3465 46.2573 93.2085 46.7377C93.0638 46.9231 92.9866 47.1523 92.9894 47.3874C92.9604 47.7374 92.9038 48.0845 92.8201 48.4256C92.8201 48.4256 92.0157 49.9699 91.9311 50.73C91.8464 51.4902 91.9311 58.5362 91.9311 58.5362H123.461V50.13L122.587 47.9985C122.587 47.9985 122.368 46.6861 122.096 46.3033C121.823 45.9204 119.806 44.7185 119.806 44.7185L118.497 41.2581C118.044 40.2255 116.868 38.9039 115.164 38.9113H100.179C98.9053 38.9113 97.4825 40.0156 97.0646 40.8292L95.1246 44.8842Z" fill="#E0E0E0"/>
<g opacity="0.3">
<path d="M91.8943 53.3861H123.461V58.5362H91.9311L91.8943 53.3861Z" fill="black"/>
</g>
<path d="M96.726 44.6891H118.643C118.643 44.6891 118.368 39.6678 115.081 39.6678C111.793 39.6678 100.264 39.7635 100.264 39.7635C100.264 39.7635 98.8261 39.4892 97.6113 41.5342C97.1536 42.3189 96.8722 43.1938 96.7867 44.0982L96.726 44.6891Z" fill="#455A64"/>
<g opacity="0.3">
<path d="M101.755 39.7524L105.747 44.6891H108.259L104.046 39.7524H101.755Z" fill="white"/>
</g>
<g opacity="0.3">
<path d="M100.264 39.7635L104.046 44.6891H104.674L100.904 39.7524L100.264 39.7635Z" fill="white"/>
</g>
<path d="M118.643 44.6891C118.643 44.6891 118.674 44.7406 118.729 44.8455L118.976 45.3094C119.191 45.7235 119.508 46.3291 119.918 47.1113V47.1224C119.918 47.9985 119.918 49.0827 119.929 50.338C119.929 50.9657 119.929 51.6375 119.929 52.348C119.928 52.7363 119.775 53.1087 119.503 53.3858C119.231 53.663 118.861 53.8229 118.473 53.8315H107.74H99.59H97.7494C97.4512 53.8315 97.164 53.8315 96.8695 53.8205C96.7234 53.8035 96.5803 53.7664 96.4443 53.7101C96.1791 53.5979 95.9525 53.4104 95.7927 53.1708C95.7152 53.0568 95.6533 52.933 95.6087 52.8026C95.5422 52.5432 95.5185 52.2746 95.5387 52.0075C95.5387 51.4902 95.5387 50.9951 95.5387 50.5202C95.5387 49.5741 95.5387 48.7182 95.548 47.9654C95.548 47.5973 95.5479 47.2384 95.5387 46.9162C95.5317 46.7589 95.5633 46.6021 95.6308 46.4598C95.6897 46.3235 95.7504 46.1965 95.8148 46.0806C96.0688 45.6131 96.3008 45.2725 96.4554 45.0406L96.6395 44.7792L96.7057 44.6927C96.7057 44.6927 96.6873 44.7259 96.6487 44.7848C96.61 44.8437 96.5493 44.9357 96.4756 45.0517C96.3247 45.2854 96.1075 45.6296 95.8517 46.0971C95.7909 46.215 95.7302 46.3401 95.6676 46.4745C95.6036 46.6119 95.5745 46.763 95.5829 46.9144C95.594 47.2384 95.5958 47.5881 95.5995 47.9636C95.5995 48.7182 95.5995 49.5741 95.5995 50.5202C95.5995 50.9951 95.5995 51.4909 95.5995 52.0075C95.5787 52.2672 95.6017 52.5285 95.6676 52.7805C95.7102 52.9051 95.7684 53.0239 95.8406 53.1339C95.9173 53.2448 96.0083 53.345 96.1112 53.4321C96.3242 53.609 96.5849 53.7185 96.8603 53.7469C97.1401 53.7616 97.4383 53.7469 97.7328 53.7469H99.5734H107.724H118.455C118.822 53.7397 119.173 53.5892 119.431 53.3276C119.689 53.0659 119.835 52.7138 119.837 52.3461C119.837 51.6357 119.837 50.9638 119.837 50.3362C119.837 49.0808 119.837 47.9967 119.837 47.1205V47.1316L118.917 45.3186L118.681 44.8492C118.666 44.7461 118.643 44.6891 118.643 44.6891Z" fill="#263238"/>
<g opacity="0.3">
<path d="M99.5219 51.7148L102.876 48.2157H112.717L116.143 51.7148L112.589 49.241H102.982L99.5219 51.7148Z" fill="black"/>
</g>
<path d="M122.85 49.241C122.85 49.241 122.85 49.2962 122.85 49.4048C122.85 49.5134 122.85 49.6772 122.85 49.8852C122.85 50.3085 122.85 50.927 122.861 51.7148V51.7387H122.837L117.98 51.7516H116.443H116.143C116.143 51.7608 116.075 51.7314 116.075 51.724L116.033 51.6909C115.929 51.5988 115.834 51.5068 115.734 51.4074L115.145 50.8166C114.356 50.0085 113.529 49.1453 112.67 48.2397L112.705 48.2544H102.872L102.905 48.2397C101.707 49.4876 100.58 50.6619 99.5477 51.7369L99.5366 51.7498H99.5182L92.2716 51.7314H92.2495V51.7093C92.2495 51.0246 92.2587 50.4981 92.2606 50.1374C92.2606 49.9619 92.2606 49.8275 92.2606 49.7343C92.2606 49.8244 92.2606 49.9625 92.2606 50.1374C92.2606 50.5055 92.2606 51.0246 92.2716 51.7093L92.2495 51.6872L99.4961 51.6669L99.4667 51.6798L102.817 48.1826L102.83 48.1697H112.71L112.725 48.1844C113.581 49.0863 114.405 49.9515 115.193 50.7613L115.78 51.354C115.878 51.4497 115.975 51.5381 116.073 51.6338L116.11 51.6633L116.121 51.6725C116.121 51.6725 116.121 51.6725 116.121 51.6853V51.6761H117.962L122.819 51.6909L122.795 51.7148C122.795 50.927 122.804 50.3085 122.806 49.8852C122.806 49.6778 122.806 49.5177 122.806 49.4048C122.845 49.2962 122.85 49.241 122.85 49.241Z" fill="#263238"/>
<path d="M112.173 49.241H103.255V51.3761H112.173V49.241Z" fill="#455A64"/>
<path d="M91.828 57.3159L92.9453 55.9612L122.828 55.8949L123.465 57.7926V59.5743L120.838 61.1518H95.0473C95.0473 61.1518 91.9661 59.9554 91.8243 58.6135L91.828 57.3159Z" fill="#263238"/>
<g opacity="0.3">
<path d="M119.158 58.2804H96.7259C96.5056 58.2801 96.2873 58.3233 96.0836 58.4075C95.88 58.4917 95.6949 58.6151 95.539 58.7709C95.3831 58.9266 95.2594 59.1115 95.1751 59.3151C95.0907 59.5187 95.0472 59.7369 95.0472 59.9572V61.0745L96.1995 61.1573H120.617V59.7382C120.617 59.5466 120.58 59.3569 120.506 59.1799C120.433 59.0029 120.325 58.8421 120.19 58.7067C120.054 58.5713 119.893 58.464 119.716 58.3908C119.539 58.3177 119.349 58.2801 119.158 58.2804Z" fill="black"/>
</g>
<path d="M97.4733 60.0235C97.4737 60.1979 97.4223 60.3686 97.3256 60.5138C97.2289 60.659 97.0914 60.7723 96.9303 60.8393C96.7692 60.9064 96.5919 60.9241 96.4208 60.8903C96.2496 60.8565 96.0923 60.7726 95.9688 60.6494C95.8454 60.5262 95.7612 60.3691 95.727 60.198C95.6929 60.0269 95.7102 59.8496 95.7769 59.6883C95.8436 59.5271 95.9566 59.3893 96.1016 59.2924C96.2466 59.1954 96.4172 59.1436 96.5916 59.1436C96.825 59.1441 97.0487 59.2369 97.2139 59.4018C97.3791 59.5666 97.4723 59.7901 97.4733 60.0235Z" fill="#455A64"/>
<path d="M99.3562 60.0235C99.3566 60.198 99.3052 60.3687 99.2084 60.514C99.1117 60.6593 98.974 60.7726 98.8128 60.8395C98.6516 60.9065 98.4742 60.9241 98.303 60.8901C98.1318 60.8562 97.9745 60.7722 97.8511 60.6488C97.7277 60.5253 97.6437 60.3681 97.6097 60.1969C97.5758 60.0257 97.5934 59.8482 97.6604 59.6871C97.7273 59.5259 97.8406 59.3882 97.9859 59.2915C98.1312 59.1947 98.3019 59.1433 98.4764 59.1436C98.7096 59.1441 98.9331 59.237 99.098 59.4019C99.2629 59.5668 99.3558 59.7903 99.3562 60.0235Z" fill="#455A64"/>
<path d="M100.085 61.0745C100.037 60.6363 100.021 60.1952 100.037 59.7547C100.021 59.3149 100.037 58.8743 100.085 58.4368C100.149 59.3149 100.149 60.1964 100.085 61.0745Z" fill="#263238"/>
<path d="M102.48 61.0745C102.431 60.6363 102.415 60.1952 102.432 59.7547C102.415 59.3149 102.431 58.8743 102.48 58.4368C102.544 59.3149 102.544 60.1964 102.48 61.0745Z" fill="#263238"/>
<path d="M104.875 61.0745C104.826 60.6363 104.81 60.1952 104.827 59.7547C104.81 59.3149 104.826 58.8743 104.875 58.4368C104.938 59.3149 104.938 60.1964 104.875 61.0745Z" fill="#263238"/>
<path d="M107.267 61.0745C107.204 60.1964 107.204 59.3149 107.267 58.4368C107.316 58.8743 107.332 59.3149 107.315 59.7547C107.332 60.1952 107.316 60.6363 107.267 61.0745Z" fill="#263238"/>
<path d="M109.662 61.0745C109.598 60.1964 109.598 59.3149 109.662 58.4368C109.71 58.8743 109.726 59.3149 109.71 59.7547C109.726 60.1952 109.71 60.6363 109.662 61.0745Z" fill="#263238"/>
<path d="M112.057 61.0745C111.993 60.1964 111.993 59.3149 112.057 58.4368C112.105 58.8743 112.121 59.3149 112.104 59.7547C112.121 60.1952 112.105 60.6363 112.057 61.0745Z" fill="#263238"/>
<path d="M114.451 61.0745C114.388 60.1964 114.388 59.3149 114.451 58.4368C114.515 59.3149 114.515 60.1964 114.451 61.0745Z" fill="#263238"/>
<path d="M116.846 61.0745C116.782 60.1964 116.782 59.3149 116.846 58.4368C116.91 59.3149 116.91 60.1964 116.846 61.0745Z" fill="#263238"/>
<path d="M119.226 61.0745C119.162 60.1964 119.162 59.3149 119.226 58.4368C119.274 58.8743 119.29 59.3149 119.274 59.7547C119.29 60.1952 119.274 60.6363 119.226 61.0745Z" fill="#263238"/>
<path d="M92.4758 56.5244L96.9615 56.5391V55.952L92.9415 55.9612L92.4758 56.5244Z" fill="#2D4356"/>
<path d="M123.027 56.4949H118.784V55.8949H122.825L123.027 56.4949Z" fill="#2D4356"/>
<path d="M119.695 44.713C119.695 44.7387 114.486 44.7608 108.061 44.7608C101.635 44.7608 96.4259 44.7387 96.4259 44.713C96.4259 44.6872 101.635 44.6651 108.061 44.6651C114.486 44.6651 119.695 44.6872 119.695 44.713Z" fill="#263238"/>
<path d="M123.461 58.8896C123.46 58.912 123.457 58.9341 123.452 58.9559L123.413 59.14C123.346 59.386 123.233 59.6171 123.08 59.821C122.692 60.3732 121.821 60.9254 120.621 61.1794L107.777 61.196L95.9565 61.1812C95.2697 61.1859 94.589 61.0513 93.9557 60.7855C93.478 60.5828 93.0414 60.2946 92.6673 59.9351C92.4312 59.7101 92.2241 59.4566 92.0506 59.1805C92.0047 59.1093 91.9629 59.0356 91.9255 58.9596C91.9131 58.9338 91.902 58.9074 91.8923 58.8804L91.9347 58.9559C91.9623 59.0056 92.0046 59.0792 92.0672 59.1713C92.2463 59.4403 92.4564 59.6874 92.693 59.9075C93.0666 60.2577 93.4999 60.5382 93.9723 60.7358C94.6004 60.9901 95.2734 61.1153 95.951 61.1039L107.772 61.091L120.616 61.1095C121.801 60.8628 122.668 60.3217 123.058 59.7897C123.212 59.5905 123.328 59.3646 123.401 59.1234C123.419 59.0443 123.436 58.9817 123.447 58.9393C123.458 58.897 123.461 58.8896 123.461 58.8896Z" fill="#455A64"/>
<path d="M92.9784 47.5108C92.9784 47.5108 93.4662 46.8223 96.1885 46.8223H119.438C119.438 46.8223 121.415 46.7193 122.532 47.6838L122.289 48.825H116.951L115 47.5678H100.761L98.7359 48.825H93.214L92.9784 47.5108Z" fill="#2D4356"/>
<path d="M119.856 47.1629C119.856 47.1905 114.214 47.2107 107.256 47.2107C100.299 47.2107 94.6571 47.1905 94.6571 47.1629C94.6571 47.1353 100.297 47.115 107.256 47.115C114.216 47.115 119.856 47.1445 119.856 47.1629Z" fill="white"/>
<g opacity="0.3">
<path d="M96.8438 44.4019C96.9281 43.4975 97.2089 42.6224 97.6666 41.8379C98.8832 39.7911 100.319 40.0672 100.319 40.0672C100.319 40.0672 111.849 39.9696 115.136 39.9696C117.936 39.9696 118.551 43.6104 118.67 44.6909H118.701C118.701 44.6909 118.427 39.6696 115.14 39.6696C111.852 39.6696 100.323 39.7653 100.323 39.7653C100.323 39.7653 98.8869 39.4911 97.6703 41.536C97.2132 42.3209 96.9324 43.1958 96.8475 44.1L96.7867 44.6909H96.8162L96.8438 44.4019Z" fill="black"/>
</g>
<path d="M104.328 40.0249C104.328 40.1031 104.359 40.1782 104.414 40.2338C104.469 40.2893 104.544 40.3207 104.622 40.3212H110.627C110.665 40.3212 110.704 40.3135 110.74 40.2986C110.776 40.2837 110.809 40.2619 110.836 40.2344C110.864 40.2069 110.885 40.1742 110.9 40.1383C110.915 40.1023 110.923 40.0638 110.923 40.0249V39.9844C110.923 39.9454 110.915 39.9068 110.9 39.8708C110.885 39.8348 110.863 39.8022 110.835 39.7748C110.808 39.7474 110.775 39.7258 110.739 39.7112C110.702 39.6966 110.664 39.6894 110.625 39.6899L104.621 39.7322C104.543 39.7327 104.469 39.7637 104.414 39.8184C104.359 39.8732 104.328 39.9474 104.328 40.0249Z" fill="#2D4356"/>
<path d="M57.7447 55.5433H52.7382V64.6932H57.7447V55.5433Z" fill="#263238"/>
<path d="M85.7299 55.5433H80.4896V64.6932H85.7299V55.5433Z" fill="#263238"/>
<path d="M54.3212 41.2746H52.9646V42.3993H54.3212V41.2746Z" fill="#263238"/>
<path d="M51.7369 43.2515C51.5575 43.2515 51.3799 43.2162 51.2142 43.1475C51.0485 43.0789 50.8979 42.9783 50.7711 42.8515C50.6443 42.7247 50.5437 42.5741 50.4751 42.4084C50.4064 42.2427 50.3711 42.0651 50.3711 41.8857V40.1979C50.3711 39.8356 50.515 39.4883 50.7711 39.2321C51.0272 38.976 51.3746 38.8321 51.7369 38.8321C52.0991 38.8321 52.4465 38.976 52.7026 39.2321C52.9587 39.4883 53.1026 39.8356 53.1026 40.1979V41.8857C53.1026 42.0651 53.0673 42.2427 52.9987 42.4084C52.93 42.5741 52.8294 42.7247 52.7026 42.8515C52.5758 42.9783 52.4252 43.0789 52.2595 43.1475C52.0938 43.2162 51.9162 43.2515 51.7369 43.2515Z" fill="#263238"/>
<path d="M83.3831 42.3993H84.7396V41.2746H83.3831V42.3993Z" fill="#263238"/>
<path d="M85.9673 43.2515C86.1467 43.2515 86.3243 43.2162 86.49 43.1475C86.6557 43.0789 86.8062 42.9783 86.9331 42.8515C87.0599 42.7247 87.1605 42.5741 87.2291 42.4084C87.2977 42.2427 87.3331 42.0651 87.3331 41.8857V40.1979C87.3331 39.8356 87.1892 39.4883 86.9331 39.2321C86.6769 38.976 86.3295 38.8321 85.9673 38.8321C85.6054 38.8326 85.2585 38.9767 85.0028 39.2328C84.747 39.4889 84.6034 39.836 84.6034 40.1979V41.8857C84.6034 42.2476 84.747 42.5948 85.0028 42.8508C85.2585 43.1069 85.6054 43.251 85.9673 43.2515Z" fill="#263238"/>
<path d="M58.6209 28.1085C58.2827 28.1136 57.9507 28.1998 57.6528 28.36C57.3549 28.5201 57.0998 28.7495 56.9091 29.0288C56.6929 29.3237 56.5212 29.6486 56.3992 29.9933C56.1618 30.7793 54.8715 33.8587 53.8481 41.5728C53.48 43.9436 53.1708 46.6769 52.9057 49.5962L52.5909 52.3425L85.3544 52.4787C85.3544 52.4787 84.4139 43.1631 84.1967 41.571C83.9795 39.9788 81.4449 29.2644 81.4449 29.2644C81.4449 29.2644 81.5185 28.4269 79.7883 28.1214C78.279 27.8582 62.7458 28.0514 58.6209 28.1085Z" fill="#2D4356"/>
<g opacity="0.3">
<path d="M60.191 46.5812H77.9532L84.7176 46.0474L85.3581 52.3112L77.6274 52.4787L52.5909 52.3425L52.983 48.755L53.2591 46.0474L60.191 46.5812Z" fill="black"/>
</g>
<path d="M57.2845 33.3175C57.2845 33.3175 55.9666 33.3691 55.4604 35.8503C54.9543 38.3315 54.5493 42.3349 54.5493 42.3349H83.5726L82.1001 35.1416C82.1001 35.1416 81.905 33.9102 80.2319 33.3175C78.5587 32.7249 58.0042 32.6328 57.2845 33.3175Z" fill="#455A64"/>
<path d="M66.1989 32.8408H71.7337V33.2089C71.7337 33.4267 71.6472 33.6355 71.4932 33.7894C71.3393 33.9434 71.1305 34.0299 70.9127 34.0299H67.0198C66.8021 34.0299 66.5933 33.9434 66.4393 33.7894C66.2853 33.6355 66.1989 33.4267 66.1989 33.2089V32.8408Z" fill="#263238"/>
<path d="M54.5493 42.3349L54.6653 41.2746H83.2892L83.5726 42.3349H54.5493Z" fill="#263238"/>
<path d="M81.4375 41.6225H81.2534C81.2534 40.9069 80.9692 40.2205 80.4631 39.7145C79.9571 39.2084 79.2707 38.9241 78.5551 38.9241C77.8394 38.9241 77.1531 39.2084 76.647 39.7145C76.141 40.2205 75.8567 40.9069 75.8567 41.6225H75.6726C75.6726 40.8581 75.9763 40.1249 76.5169 39.5843C77.0574 39.0438 77.7906 38.7401 78.5551 38.7401C79.3195 38.7401 80.0527 39.0438 80.5933 39.5843C81.1338 40.1249 81.4375 40.8581 81.4375 41.6225Z" fill="#263238"/>
<path d="M74.9677 41.4385C74.9677 41.4385 75.3671 40.7022 76.5285 40.6654C77.6053 40.6359 80.3405 40.6654 80.3405 40.6654C80.3405 40.6654 81.675 40.7243 82.0615 41.2746V41.6225H74.9677V41.4385Z" fill="#263238"/>
<path d="M56.4876 41.4661C56.3716 41.6133 56.5428 39.3015 56.8079 38.2873C56.8373 38.1736 56.9038 38.073 56.9968 38.0014C57.0898 37.9297 57.204 37.8911 57.3214 37.8915H62.05C62.1762 37.8914 62.2983 37.9364 62.3942 38.0184C62.4901 38.1005 62.5534 38.2141 62.5728 38.3388C62.6814 39.0364 62.9722 40.3764 63.0366 41.4679L56.4876 41.4661Z" fill="#263238"/>
<path d="M61.207 35.3625H58.2473C57.9139 35.3625 57.6436 35.6328 57.6436 35.9662V36.9804C57.6436 37.3138 57.9139 37.5841 58.2473 37.5841H61.207C61.5405 37.5841 61.8108 37.3138 61.8108 36.9804V35.9662C61.8108 35.6328 61.5405 35.3625 61.207 35.3625Z" fill="#263238"/>
<path d="M64.9178 41.4661C64.8018 41.6133 64.9749 39.3015 65.2381 38.2873C65.2681 38.1739 65.3347 38.0737 65.4276 38.0021C65.5205 37.9306 65.6344 37.8917 65.7516 37.8915H70.4766C70.603 37.8913 70.7253 37.9362 70.8215 38.0183C70.9177 38.1003 70.9814 38.214 71.0011 38.3388C71.1097 39.0364 71.3987 40.3764 71.465 41.4679L64.9178 41.4661Z" fill="#263238"/>
<path d="M69.6371 35.3625H66.6773C66.3439 35.3625 66.0736 35.6328 66.0736 35.9662V36.9804C66.0736 37.3138 66.3439 37.5841 66.6773 37.5841H69.6371C69.9705 37.5841 70.2408 37.3138 70.2408 36.9804V35.9662C70.2408 35.6328 69.9705 35.3625 69.6371 35.3625Z" fill="#263238"/>
<path d="M73.6203 41.4661C73.5043 41.6133 73.6755 39.3015 73.9406 38.2873C73.9703 38.1738 74.0368 38.0734 74.1298 38.0018C74.2227 37.9301 74.3368 37.8914 74.4541 37.8915H79.1827C79.309 37.891 79.4313 37.9359 79.5273 38.018C79.6232 38.1001 79.6865 38.214 79.7055 38.3388C79.8141 39.0364 80.1049 40.3764 80.1693 41.4679L73.6203 41.4661Z" fill="#263238"/>
<path d="M78.3379 35.3625H75.3781C75.0447 35.3625 74.7744 35.6328 74.7744 35.9662V36.9804C74.7744 37.3138 75.0447 37.5841 75.3781 37.5841H78.3379C78.6713 37.5841 78.9416 37.3138 78.9416 36.9804V35.9662C78.9416 35.6328 78.6713 35.3625 78.3379 35.3625Z" fill="#263238"/>
<path d="M83.5727 42.3349C83.5727 42.3349 83.5727 42.3735 83.5727 42.4471C83.5727 42.5208 83.5727 42.6312 83.5727 42.7803C83.5727 43.0766 83.5543 43.5055 83.5395 44.0577C83.5046 45.1713 83.4567 46.7763 83.396 48.7569V48.79H83.361L69.0849 48.8029L54.5549 48.79H54.5199V48.755C54.5199 46.85 54.5328 45.3075 54.5365 44.2381C54.5365 43.708 54.5365 43.2938 54.5365 43.0104C54.5365 42.8723 54.5365 42.7656 54.5365 42.6901C54.5365 42.6146 54.5365 42.5815 54.5365 42.5815C54.5365 42.5815 54.5365 42.6183 54.5365 42.6901C54.5365 42.7619 54.5365 42.8742 54.5365 43.0104C54.5365 43.2938 54.5365 43.708 54.5457 44.2381C54.5457 45.3075 54.5549 46.85 54.5604 48.755L54.5273 48.7219L69.0573 48.7072L83.3334 48.7201L83.2984 48.755C83.372 46.7745 83.4328 45.1695 83.4825 44.0559C83.5046 43.5037 83.523 43.0748 83.5358 42.7803C83.5358 42.6367 83.5469 42.5263 83.5506 42.4471C83.5543 42.368 83.5727 42.3349 83.5727 42.3349Z" fill="#263238"/>
<path d="M77.9532 46.5812C77.9182 46.6861 77.9532 50.1245 77.9532 50.1245C77.9532 50.1245 83.7457 50.4392 85.0415 49.0017L84.7175 46.0474L77.9532 46.5812Z" fill="#E0E0E0"/>
<path d="M77.9532 46.5812C77.9939 46.573 78.0351 46.5675 78.0765 46.5647L78.4447 46.5297L79.838 46.4064L84.7139 46.0033H84.7581V46.0456C84.8593 46.9659 84.9698 47.9599 85.0857 48.9906V49.0127L85.071 49.0274C84.9408 49.1633 84.7913 49.2793 84.6274 49.3716C84.0545 49.6602 83.4384 49.8535 82.8033 49.9441C82.2145 50.0405 81.621 50.1057 81.0253 50.1392C79.9998 50.1998 78.9718 50.2048 77.9459 50.1539H77.9109V50.1208C77.9109 49.0293 77.9109 48.1421 77.9109 47.5292C77.9109 47.2236 77.9109 46.977 77.9238 46.8223C77.9215 46.7402 77.929 46.658 77.9459 46.5775C77.9459 46.7046 77.9459 46.9733 77.9459 47.5292C77.9551 48.1495 77.9643 49.033 77.979 50.1189L77.944 50.084C78.9673 50.1249 79.992 50.1145 81.0142 50.0527C81.6063 50.0165 82.1961 49.9495 82.7812 49.8521C83.4052 49.763 84.0107 49.5734 84.574 49.2907C84.7296 49.2031 84.8716 49.0933 84.9955 48.9649L84.9826 49.0017C84.8704 47.9617 84.7618 46.9641 84.6624 46.0566L84.7102 46.0953L79.8528 46.4634L78.4502 46.561L78.0821 46.5831H77.9845L77.9532 46.5812Z" fill="#263238"/>
<path d="M60.0824 46.5812C60.1173 46.6861 60.0824 50.1245 60.0824 50.1245C60.0824 50.1245 54.2899 50.4392 52.9904 49.0035L53.3143 46.0493L60.0824 46.5812Z" fill="#E0E0E0"/>
<path d="M60.0823 46.5812H60.0473H59.9498L59.5816 46.5591L58.1791 46.4616L53.3216 46.0935L53.3584 46.0585C53.259 46.9788 53.1486 47.9709 53.0363 49.0035L53.0234 48.9667C53.1479 49.0953 53.2905 49.2051 53.4468 49.2925C54.0093 49.5755 54.6142 49.7651 55.2377 49.8539C55.8234 49.9514 56.4139 50.0184 57.0066 50.0545C58.0282 50.1163 59.0523 50.1268 60.0749 50.0858L60.0418 50.1208C60.0547 49.0348 60.0657 48.1513 60.0731 47.531C60.0731 46.9788 60.0731 46.7064 60.0731 46.5794C60.09 46.6598 60.0974 46.742 60.0952 46.8242C60.0952 46.9862 60.1062 47.2255 60.1099 47.531C60.1099 48.1439 60.1099 49.0311 60.1099 50.1226V50.1558H60.0749C59.0489 50.2066 58.021 50.2017 56.9955 50.141C56.3998 50.1075 55.8063 50.0424 55.2175 49.9459C54.5829 49.8555 53.9674 49.6622 53.3952 49.3735C53.2304 49.2816 53.0803 49.1656 52.9498 49.0293L52.9351 49.0146V49.0035C53.051 47.9635 53.1615 46.9641 53.2627 46.0585V46.0161H53.305L58.1827 46.4192L59.5743 46.5426L59.9424 46.5775C59.9891 46.5754 60.0358 46.5766 60.0823 46.5812Z" fill="#263238"/>
<path d="M52.5909 52.3425C52.5909 52.3425 52.2707 56.6238 53.0069 59.2265C53.1245 59.6347 53.3719 59.9935 53.7117 60.2486C54.0515 60.5037 54.4651 60.6411 54.8899 60.6401H83.7291C84.0346 60.6411 84.3333 60.5494 84.5856 60.3772C84.838 60.205 85.0322 59.9604 85.1428 59.6756C85.6011 58.4939 86.0925 56.4986 85.3636 52.313L76.8322 52.3443L52.5909 52.3425Z" fill="#263238"/>
<g opacity="0.3">
<path d="M53.3971 53.745C53.4873 53.8076 53.7652 55.6703 55.0702 55.9446C56.3753 56.2189 58.5675 56.0661 58.5675 56.0661V53.745H53.3971Z" fill="black"/>
</g>
<path d="M57.4687 54.9028C57.4687 55.1122 57.4066 55.3169 57.2902 55.491C57.1738 55.6651 57.0084 55.8007 56.8149 55.8808C56.6214 55.9608 56.4085 55.9817 56.2031 55.9407C55.9978 55.8997 55.8092 55.7987 55.6613 55.6505C55.5133 55.5023 55.4127 55.3136 55.372 55.1081C55.3314 54.9027 55.3526 54.6899 55.433 54.4965C55.5134 54.3031 55.6494 54.138 55.8236 54.0219C55.9979 53.9058 56.2027 53.8441 56.4121 53.8444C56.551 53.8444 56.6886 53.8718 56.8169 53.925C56.9452 53.9782 57.0617 54.0562 57.1599 54.1545C57.258 54.2528 57.3358 54.3695 57.3888 54.4979C57.4418 54.6263 57.4689 54.7639 57.4687 54.9028Z" fill="white"/>
<g opacity="0.3">
<path d="M83.5046 53.7708C83.4126 53.8315 83.1365 55.6961 81.8296 55.9796C80.5228 56.263 78.3324 56.101 78.3324 56.101V53.7708H83.5046Z" fill="black"/>
</g>
<path d="M79.4313 54.9267C79.4309 55.1361 79.4927 55.3409 79.6088 55.5152C79.7248 55.6895 79.89 55.8254 80.0833 55.9058C80.2767 55.9862 80.4896 56.0074 80.695 55.9668C80.9004 55.9262 81.0892 55.8255 81.2374 55.6776C81.3856 55.5296 81.4866 55.3411 81.5275 55.1357C81.5685 54.9304 81.5477 54.7175 81.4676 54.524C81.3876 54.3305 81.2519 54.1651 81.0778 54.0487C80.9037 53.9323 80.6991 53.8702 80.4896 53.8702C80.2093 53.8702 79.9403 53.9814 79.7419 54.1795C79.5435 54.3776 79.4318 54.6463 79.4313 54.9267Z" fill="white"/>
<path d="M61.0615 53.745V55.5636C61.0615 56.0352 61.2489 56.4874 61.5823 56.8209C61.9158 57.1543 62.368 57.3416 62.8396 57.3416H75.1719C75.6435 57.3416 76.0957 57.1543 76.4292 56.8209C76.7626 56.4874 76.95 56.0352 76.95 55.5636V53.8444L61.0615 53.745Z" fill="#455A64"/>
<g opacity="0.3">
<path d="M75.1794 56.622H62.847C62.6136 56.6222 62.3824 56.5764 62.1667 56.4873C61.951 56.3981 61.755 56.2673 61.5899 56.1024C61.4247 55.9374 61.2937 55.7415 61.2044 55.5259C61.115 55.3103 61.069 55.0791 61.069 54.8457V55.5949C61.0687 55.8284 61.1146 56.0598 61.2038 56.2756C61.2931 56.4914 61.4241 56.6875 61.5892 56.8527C61.7544 57.0179 61.9505 57.1488 62.1663 57.2381C62.3821 57.3274 62.6135 57.3732 62.847 57.3729H75.1794C75.4129 57.3732 75.6443 57.3274 75.8601 57.2381C76.0759 57.1488 76.272 57.0179 76.4372 56.8527C76.6023 56.6875 76.7333 56.4914 76.8226 56.2756C76.9118 56.0598 76.9577 55.8284 76.9574 55.5949V54.8457C76.9574 55.0791 76.9114 55.3103 76.822 55.5259C76.7327 55.7415 76.6017 55.9374 76.4365 56.1024C76.2714 56.2673 76.0754 56.3981 75.8597 56.4873C75.6439 56.5764 75.4128 56.6222 75.1794 56.622Z" fill="black"/>
</g>
<path d="M62.0335 48.755C62.0335 48.755 61.1997 49.0919 61.0617 50.3656C60.8942 51.9209 62.6722 52.3425 62.6722 52.3425H76.1826C76.6415 51.7812 76.9115 51.0894 76.9538 50.3656C76.9869 49.2262 75.9138 48.755 75.9138 48.755H62.0335Z" fill="#263238"/>
<path d="M81.3455 29.5589C81.3455 29.5847 75.8107 29.6068 68.9874 29.6068C62.1641 29.6068 56.6274 29.5847 56.6274 29.5589C56.6274 29.5332 62.1604 29.5111 68.9874 29.5111C75.8143 29.5111 81.3455 29.5313 81.3455 29.5589Z" fill="#263238"/>
<path d="M85.3582 52.3167C85.3582 52.3167 85.4981 52.9683 85.6361 54.1573C85.7195 54.8844 85.7582 55.6159 85.7521 56.3477C85.7536 57.3201 85.6128 58.2875 85.3342 59.2191C85.2919 59.3479 85.2496 59.4786 85.1999 59.6075C85.1551 59.7418 85.0932 59.8699 85.0158 59.9885C84.8494 60.2324 84.617 60.424 84.3458 60.5407C84.2067 60.6022 84.0589 60.6419 83.9077 60.6585C83.7553 60.671 83.6023 60.6753 83.4494 60.6714H82.5181H78.4686H69.2139H59.9554H55.917H54.9838C54.6785 60.6818 54.3746 60.6259 54.0929 60.5076C53.8301 60.393 53.5952 60.2227 53.4046 60.0085C53.2139 59.7943 53.072 59.5413 52.9886 59.267C52.7459 58.3272 52.5997 57.365 52.5523 56.3956C52.5008 55.5415 52.4971 54.8034 52.5045 54.2015C52.5118 53.5996 52.5339 53.1339 52.5523 52.8173C52.5634 52.6609 52.5707 52.5412 52.5781 52.4492C52.5855 52.3572 52.591 52.3277 52.591 52.3277C52.591 52.3277 52.591 52.3701 52.591 52.4511C52.591 52.532 52.5818 52.6535 52.5763 52.81C52.5634 53.1266 52.5468 53.5941 52.545 54.1941C52.5431 54.7942 52.5542 55.5323 52.6112 56.3845C52.6625 57.3494 52.8118 58.3065 53.0567 59.2412C53.1391 59.5058 53.2779 59.7494 53.4635 59.9553C53.649 60.1612 53.877 60.3245 54.1316 60.4339C54.4048 60.5473 54.6994 60.5994 54.9949 60.5867H55.9281H59.9665H69.2249H78.4797H82.5291H83.4605C83.6102 60.592 83.7602 60.5889 83.9096 60.5775C84.1215 60.5526 84.3257 60.4825 84.5082 60.372C84.6908 60.2615 84.8476 60.1132 84.968 59.937C85.0451 59.8228 85.1069 59.699 85.152 59.5688C85.2017 59.4418 85.2459 59.313 85.2882 59.186C85.5684 58.2614 85.7129 57.3009 85.7171 56.3348C85.7278 55.6046 85.6946 54.8744 85.6177 54.1481C85.5901 53.8481 85.5551 53.583 85.5257 53.3548C85.4962 53.1266 85.4686 52.9315 85.4447 52.775C85.4208 52.6185 85.4042 52.5007 85.3913 52.4179C85.3784 52.3351 85.3582 52.3167 85.3582 52.3167Z" fill="#455A64"/>
<path d="M85.3582 52.3167C85.3582 52.3425 78.4373 52.3645 69.8967 52.3645C61.3561 52.3645 54.4353 52.3425 54.4353 52.3167C54.4353 52.2909 61.3543 52.2688 69.8967 52.2688C78.4392 52.2688 85.3582 52.2836 85.3582 52.3167Z" fill="#455A64"/>
<path d="M17.21 46.4634H14.5723C14.3771 46.4634 14.1898 46.3859 14.0517 46.2478C13.9136 46.1097 13.8361 45.9224 13.8361 45.7272C13.8361 45.4304 13.954 45.1457 14.1638 44.9358C14.3737 44.726 14.6584 44.6081 14.9552 44.6081H16.5823C16.6637 44.6081 16.7442 44.6241 16.8194 44.6553C16.8946 44.6865 16.9628 44.7322 17.0203 44.7899C17.0777 44.8475 17.1232 44.9159 17.1542 44.9911C17.1852 45.0664 17.201 45.147 17.2008 45.2284L17.21 46.4634Z" fill="#2D4356"/>
<path d="M41.3353 46.4634H43.9711C44.1664 46.4634 44.3537 46.3859 44.4917 46.2478C44.6298 46.1097 44.7074 45.9224 44.7074 45.7272C44.7074 45.4304 44.5895 45.1457 44.3796 44.9358C44.1697 44.726 43.8851 44.6081 43.5883 44.6081H41.9611C41.7966 44.6081 41.6389 44.6734 41.5225 44.7897C41.4062 44.9061 41.3409 45.0638 41.3409 45.2284L41.3353 46.4634Z" fill="#2D4356"/>
<path d="M19.3267 57.5202H14.0477V64.592H19.3267V57.5202Z" fill="#263238"/>
<path d="M44.8271 57.5202H39.5481V64.592H44.8271V57.5202Z" fill="#263238"/>
<path d="M14.5852 48.1219L16.1203 46.8886L18.5481 40.2218C18.9162 39.3917 19.6083 38.3241 21.2152 38.1621L37.9448 38.3094C38.4077 38.3138 38.8583 38.4592 39.2365 38.7262C39.6147 38.9932 39.9025 39.3692 40.0616 39.804L42.2354 45.7566L42.8317 47.1095L44.249 48.1016C44.516 48.2877 44.7343 48.5355 44.8852 48.8238C45.0361 49.1122 45.1153 49.4327 45.116 49.7582V59.3111C45.116 59.3111 45.046 61.069 43.2201 61.069H15.892C15.892 61.069 14.1361 61.1389 13.8544 59.1013C13.6317 57.4852 13.7624 51.8878 13.8268 49.6441C13.8353 49.3505 13.9075 49.0623 14.0384 48.7995C14.1694 48.5366 14.3559 48.3054 14.5852 48.1219Z" fill="#E0E0E0"/>
<g opacity="0.3">
<path d="M13.6962 54.9507C13.906 55.0022 45.116 54.9507 45.116 54.9507V59.2062C45.116 60.2425 44.3797 61.0726 43.3379 61.0726H16.0688C15.7604 61.0809 15.4536 61.0259 15.1674 60.9109C14.8811 60.7959 14.6214 60.6235 14.4044 60.4043C14.1874 60.185 14.0177 59.9236 13.9057 59.6362C13.7937 59.3488 13.7418 59.0414 13.7532 58.7332L13.6962 54.9507Z" fill="black"/>
</g>
<path d="M14.7767 48.8195L20.8324 49.5557V53.1063C20.8324 53.1063 14.1306 52.9223 13.7294 52.0277L13.8196 49.6349C13.8243 49.5169 13.8534 49.4011 13.9051 49.2949C13.9567 49.1887 14.0298 49.0943 14.1197 49.0177C14.2096 48.9412 14.3144 48.884 14.4275 48.8499C14.5405 48.8158 14.6594 48.8054 14.7767 48.8195Z" fill="#9D9D9D"/>
<path d="M14.7767 48.8195C14.6891 48.8179 14.6016 48.8247 14.5153 48.8397C14.3932 48.8653 14.2783 48.9175 14.1788 48.9926C14.0792 49.0677 13.9974 49.1638 13.9392 49.2741C13.8611 49.4367 13.8268 49.6169 13.8398 49.7968C13.8398 49.9956 13.8269 50.2128 13.8195 50.4447C13.803 50.9123 13.7864 51.4405 13.7661 52.0222V52.0075C13.909 52.1757 14.1029 52.2927 14.3183 52.3406C14.5484 52.4152 14.7826 52.4766 15.0196 52.5247C15.5092 52.6222 16.0338 52.6995 16.5842 52.7621C17.6886 52.8873 18.8795 52.9683 20.1293 53.0253L20.8416 53.0529L20.7919 53.1008C20.7919 51.8381 20.7919 50.6399 20.7919 49.5502L20.8305 49.5944L16.4645 49.0422L15.2221 48.8802L14.8889 48.8397C14.8505 48.8356 14.8123 48.8289 14.7748 48.8195C14.8134 48.8165 14.8522 48.8165 14.8908 48.8195L15.2203 48.8507L16.4645 48.9888L20.8361 49.5005H20.8747V49.5557C20.8747 50.6454 20.8747 51.8436 20.8747 53.1063V53.156H20.825L20.1127 53.1284C18.861 53.0713 17.6609 52.9885 16.5602 52.8578C16.008 52.7934 15.4835 52.7161 14.9902 52.613C14.7499 52.5656 14.5127 52.5042 14.2797 52.429C14.1677 52.3906 14.0588 52.3439 13.9539 52.2891C13.8447 52.2366 13.7533 52.1535 13.6907 52.0498V52.0406C13.7164 51.4589 13.7385 50.9362 13.7569 50.4631C13.768 50.2312 13.7772 50.014 13.7864 49.8152C13.7777 49.6287 13.817 49.443 13.9005 49.2759C13.962 49.1574 14.0499 49.0545 14.1574 48.9754C14.265 48.8962 14.3893 48.8429 14.5208 48.8195C14.6053 48.8029 14.6922 48.8029 14.7767 48.8195Z" fill="#263238"/>
<path d="M44.0687 48.8195L38.0129 49.5557V53.1063C38.0129 53.1063 44.584 52.8744 44.9853 51.9835L45.0258 49.6422C45.0223 49.5235 44.9941 49.4068 44.943 49.2996C44.8919 49.1924 44.8189 49.097 44.7288 49.0196C44.6388 48.9421 44.5335 48.8844 44.4199 48.8499C44.3062 48.8154 44.1866 48.8051 44.0687 48.8195Z" fill="#9D9D9D"/>
<path d="M44.0687 48.8195C44.1556 48.8017 44.2451 48.8017 44.3319 48.8195C44.4583 48.8412 44.5781 48.8908 44.6829 48.9647C44.7876 49.0386 44.8746 49.1348 44.9375 49.2465C45.0277 49.4085 45.0668 49.5939 45.0498 49.7784C45.0498 49.9754 45.0498 50.1907 45.0498 50.4208C45.0498 50.881 45.0369 51.4056 45.0296 51.9799C44.9681 52.0824 44.8787 52.1654 44.7719 52.2191C44.6683 52.2746 44.5606 52.322 44.4498 52.3609C44.2191 52.441 43.9836 52.5068 43.7448 52.5578C43.2552 52.6627 42.7324 52.7419 42.1858 52.8137C41.0924 52.9499 39.8997 53.0437 38.6554 53.1082L38.0259 53.1358H37.9762V53.0861C37.9762 51.8252 37.9762 50.627 37.9762 49.5355V49.4968H38.0149L42.3772 49.0035L43.6233 48.8655L43.9546 48.8342C43.9926 48.8313 44.0308 48.8313 44.0687 48.8342C44.0318 48.8435 43.9943 48.8503 43.9565 48.8544L43.627 48.9023L42.3845 49.0643L38.0185 49.6165L38.0572 49.5723C38.0572 50.6638 38.0572 51.8621 38.0572 53.1229L38.0075 53.075L38.637 53.0474C39.8794 52.983 41.0685 52.8928 42.16 52.7603C42.7122 52.694 43.2257 52.613 43.7117 52.5118C43.9469 52.4638 44.1792 52.4023 44.4074 52.3277C44.6192 52.2762 44.8088 52.1581 44.9486 51.9909V52.0056C44.9615 51.4295 44.9725 50.9012 44.9835 50.4466C44.9835 50.2165 44.9946 50.003 44.9983 49.8042C45.0183 49.6277 44.9842 49.4493 44.9007 49.2925C44.8418 49.1842 44.7601 49.09 44.6613 49.0163C44.5625 48.9426 44.4489 48.8911 44.3283 48.8655C44.2431 48.8434 44.1563 48.828 44.0687 48.8195Z" fill="#263238"/>
<path d="M23.159 49.5557C22.7027 49.5531 22.2605 49.7138 21.9124 50.0089C21.5643 50.304 21.3334 50.7139 21.2613 51.1644C21.2175 51.4691 21.2045 51.7775 21.2226 52.0848C21.3294 54.207 21.7527 56.8079 22.7614 57.4429H29.7117V49.5557H23.159Z" fill="#263238"/>
<path d="M35.471 49.5557C35.9274 49.5527 36.3698 49.7133 36.718 50.0084C37.0661 50.3036 37.297 50.7137 37.3687 51.1644C37.4125 51.4691 37.4255 51.7775 37.4074 52.0848C37.3025 54.207 36.8773 56.8079 35.8686 57.4429H28.9183V49.5557H35.471Z" fill="#263238"/>
<path d="M37.2215 52.3517H21.4766C21.3643 52.3517 21.2566 52.3071 21.1772 52.2277C21.0978 52.1483 21.0532 52.0406 21.0532 51.9283C21.053 51.8726 21.0638 51.8173 21.0849 51.7657C21.1061 51.7142 21.1372 51.6673 21.1766 51.6278C21.2159 51.5883 21.2627 51.5569 21.3141 51.5355C21.3656 51.5141 21.4208 51.5031 21.4766 51.5031H37.2215C37.2772 51.5031 37.3324 51.5141 37.3839 51.5355C37.4354 51.5569 37.4821 51.5883 37.5215 51.6278C37.5608 51.6673 37.5919 51.7142 37.6131 51.7657C37.6343 51.8173 37.6451 51.8726 37.6448 51.9283C37.6448 52.0406 37.6002 52.1483 37.5208 52.2277C37.4414 52.3071 37.3337 52.3517 37.2215 52.3517Z" fill="#455A64"/>
<path d="M36.3969 50.6767H22.0398C21.984 50.6767 21.9287 50.6657 21.8771 50.6443C21.8255 50.6229 21.7786 50.5916 21.7392 50.5521C21.6997 50.5127 21.6684 50.4658 21.647 50.4142C21.6256 50.3626 21.6146 50.3073 21.6146 50.2515C21.6146 50.1956 21.6256 50.1404 21.647 50.0888C21.6684 50.0372 21.6997 49.9903 21.7392 49.9508C21.7786 49.9113 21.8255 49.88 21.8771 49.8587C21.9287 49.8373 21.984 49.8263 22.0398 49.8263H36.3969C36.5093 49.8268 36.617 49.8718 36.6963 49.9515C36.7757 50.0312 36.8202 50.139 36.8202 50.2515C36.8202 50.3639 36.7757 50.4718 36.6963 50.5515C36.617 50.6312 36.5093 50.6762 36.3969 50.6767Z" fill="#455A64"/>
<path d="M37.2196 53.3935H21.6404C21.4056 53.3935 21.2152 53.5834 21.2152 53.8177C21.2152 54.052 21.4056 54.242 21.6404 54.242H37.2196C37.4545 54.242 37.6448 54.052 37.6448 53.8177C37.6448 53.5834 37.4545 53.3935 37.2196 53.3935Z" fill="#455A64"/>
<path d="M36.6785 56.1305H21.992C21.8797 56.1305 21.772 56.0859 21.6926 56.0065C21.6132 55.9271 21.5686 55.8194 21.5686 55.7072C21.5684 55.6514 21.5791 55.5962 21.6003 55.5446C21.6215 55.493 21.6526 55.4461 21.692 55.4066C21.7313 55.3671 21.778 55.3358 21.8295 55.3144C21.881 55.293 21.9362 55.282 21.992 55.282H36.6785C36.7342 55.282 36.7894 55.293 36.8409 55.3144C36.8924 55.3358 36.9391 55.3671 36.9785 55.4066C37.0178 55.4461 37.049 55.493 37.0701 55.5446C37.0913 55.5962 37.1021 55.6514 37.1018 55.7072C37.1018 55.8194 37.0572 55.9271 36.9778 56.0065C36.8984 56.0859 36.7908 56.1305 36.6785 56.1305Z" fill="#455A64"/>
<path d="M17.2817 45.8634C17.2817 45.8634 19.0359 40.0028 19.8734 39.2591H39.0824C39.0824 39.2591 40.7389 42.8871 41.3353 45.8634H17.2817Z" fill="#455A64"/>
<path d="M22.1835 58.4773V58.9872C22.1835 59.285 22.3018 59.5706 22.5123 59.7811C22.7229 59.9917 23.0085 60.11 23.3063 60.11H35.5668C35.8646 60.11 36.1502 59.9917 36.3607 59.7811C36.5713 59.5706 36.6896 59.285 36.6896 58.9872V58.4773H22.1835Z" fill="#263238"/>
<path d="M39.1487 57.06V59.2927C39.1487 59.2927 43.6362 59.9259 44.2933 57.06H39.1487Z" fill="#263238"/>
<path d="M20.3281 57.06V59.2927C20.3281 59.2927 15.8406 59.9259 15.1853 57.06H20.3281Z" fill="#263238"/>
<path d="M42.8318 47.1095C42.8256 47.0982 42.82 47.0865 42.8152 47.0745L42.7692 46.9659C42.7305 46.8665 42.6735 46.7248 42.6017 46.5444C42.4544 46.1763 42.2446 45.6241 41.9777 44.9449C41.4458 43.5663 40.6893 41.6133 39.8039 39.3033L39.8444 39.3309H33.6285L23.3117 39.3033L20.1826 39.2831L19.3322 39.272H20.1826L23.3117 39.261H33.6285L39.8444 39.2739H39.8738L39.8849 39.3015L42.0256 44.9559C42.2833 45.6425 42.4857 46.1873 42.6275 46.5647C42.6937 46.7487 42.7453 46.8886 42.7839 46.9917L42.8207 47.1021C42.8299 47.0966 42.8336 47.1095 42.8318 47.1095Z" fill="#263238"/>
<path d="M41.3353 45.8634C41.3353 45.8891 35.9514 45.9149 29.3085 45.9186C22.6656 45.9223 17.2817 45.9057 17.2817 45.8744C17.2817 45.8431 22.6656 45.8229 29.3085 45.8192C35.9514 45.8155 41.3353 45.8376 41.3353 45.8634Z" fill="#263238"/>
<path d="M41.1696 45.8284C41.1862 45.8082 41.963 46.364 42.9035 47.0709C43.8441 47.7777 44.5951 48.3685 44.5785 48.3906C44.562 48.4127 43.787 47.855 42.8465 47.1482C41.9059 46.4414 41.1549 45.8505 41.1696 45.8284Z" fill="#263238"/>
<path d="M17.2818 45.8634C17.2984 45.8836 16.6468 46.4653 15.8258 47.1629C15.0049 47.8605 14.3257 48.4108 14.3091 48.3906C14.2926 48.3704 14.9442 47.7887 15.7633 47.0911C16.2482 46.6563 16.7551 46.2465 17.2818 45.8634Z" fill="#263238"/>
<path d="M17.5044 43.0895C17.5284 43.0895 17.2394 43.9565 16.8565 45.0056C16.4737 46.0548 16.1442 46.8978 16.1203 46.8886C16.0964 46.8794 16.3853 46.0217 16.7663 44.9725C17.1474 43.9233 17.4787 43.0803 17.5044 43.0895Z" fill="#263238"/>
<path d="M38.6867 49.4692C38.6714 49.4711 38.6559 49.4711 38.6406 49.4692L38.5063 49.4784L37.9872 49.5079C37.5344 49.5318 36.8828 49.5594 36.0748 49.5815C34.4587 49.6312 32.226 49.657 29.7614 49.6496C27.2967 49.6422 25.0622 49.6109 23.448 49.5925L21.5337 49.5649L21.0146 49.5539H21.5337H23.448L29.7614 49.5833C32.226 49.5833 34.4569 49.5833 36.0729 49.5447L37.9854 49.5005L38.5044 49.4895H38.6885L38.6867 49.4692Z" fill="#263238"/>
<path d="M26.5991 39.2591H31.7529V39.5518C31.7529 39.7695 31.6664 39.9783 31.5125 40.1323C31.3585 40.2862 31.1497 40.3727 30.932 40.3727H27.4201C27.2023 40.3727 26.9935 40.2862 26.8396 40.1323C26.6856 39.9783 26.5991 39.7695 26.5991 39.5518V39.2591Z" fill="#263238"/>
<path d="M39.1634 45.7603H38.9794C38.9617 45.1074 38.6899 44.4872 38.2218 44.0317C37.7538 43.5761 37.1264 43.3213 36.4733 43.3213C35.8202 43.3213 35.1928 43.5761 34.7248 44.0317C34.2568 44.4872 33.985 45.1074 33.9673 45.7603H33.7832C33.8015 45.059 34.093 44.3926 34.5955 43.9031C35.098 43.4136 35.7718 43.1396 36.4733 43.1396C37.1748 43.1396 37.8486 43.4136 38.3511 43.9031C38.8536 44.3926 39.1451 45.059 39.1634 45.7603Z" fill="#263238"/>
<path d="M32.9696 45.6572C32.9696 45.6572 33.3377 44.9651 34.4237 44.9375C35.4269 44.9099 37.9725 44.9375 37.9725 44.9375C37.9725 44.9375 39.2149 44.9928 39.5738 45.5044V45.8284H32.9696V45.6572Z" fill="#263238"/>
<path d="M20.1587 45.9315C20.0428 46.053 20.2121 44.1497 20.4735 43.3141C20.5122 43.2132 20.5819 43.1272 20.6725 43.0684C20.7631 43.0095 20.8699 42.9808 20.9778 42.9865H25.6273C25.7425 42.979 25.8567 43.0116 25.9506 43.0787C26.0445 43.1458 26.1124 43.2432 26.1427 43.3546C26.2494 43.9289 26.5347 45.0333 26.5992 45.9315H20.1587Z" fill="#263238"/>
<path d="M24.8063 40.9047H21.9146C21.5812 40.9047 21.3109 41.175 21.3109 41.5084V42.1305C21.3109 42.464 21.5812 42.7343 21.9146 42.7343H24.8063C25.1397 42.7343 25.41 42.464 25.41 42.1305V41.5084C25.41 41.175 25.1397 40.9047 24.8063 40.9047Z" fill="#263238"/>
<path d="M31.3756 45.8634C31.2615 45.9849 31.4676 43.9859 31.7272 43.1503C31.7666 43.0501 31.8365 42.9648 31.927 42.9063C32.0174 42.8479 32.1239 42.8193 32.2315 42.8245H36.881C36.9961 42.817 37.1103 42.8496 37.2043 42.9167C37.2982 42.9838 37.366 43.0812 37.3963 43.1926C37.5031 43.7687 37.7884 44.9615 37.8528 45.8634H31.3756Z" fill="#263238"/>
<path d="M36.0601 40.9047H33.1684C32.835 40.9047 32.5647 41.175 32.5647 41.5084V42.1305C32.5647 42.464 32.835 42.7343 33.1684 42.7343H36.0601C36.3935 42.7343 36.6638 42.464 36.6638 42.1305V41.5084C36.6638 41.175 36.3935 40.9047 36.0601 40.9047Z" fill="#263238"/>
<path d="M7.5742 43.951H6.00781V64.6914H7.5742V43.951Z" fill="#E0E0E0"/>
<path d="M7.57433 64.6932C7.57433 64.6932 7.57433 64.6545 7.57433 64.5846C7.57433 64.5147 7.57433 64.4005 7.57433 64.2717C7.57433 63.9938 7.57433 63.5906 7.57433 63.0716C7.57433 62.0298 7.57433 60.5223 7.5596 58.654C7.5596 54.9212 7.54672 49.7435 7.53936 43.9491L7.58721 43.997H6.00794L6.0558 43.9491C6.0558 53.4119 6.04291 61.496 6.02451 64.6914L6.00794 64.673L7.17123 64.684H7.47125H7.57433H7.47678H7.18227L6.00794 64.6932H5.98953V64.6766C5.97297 61.4813 5.96008 53.3972 5.96008 43.9344V43.8865H7.61666V43.9344C7.61666 49.7416 7.60194 54.9323 7.59642 58.6743C7.59642 60.537 7.58537 62.039 7.58169 63.079C7.58169 63.5925 7.58169 63.9993 7.58169 64.268C7.58169 64.4005 7.58169 64.5018 7.58169 64.5736C7.58169 64.6453 7.57433 64.6932 7.57433 64.6932Z" fill="#263238"/>
<path d="M11.3016 32.8353H2.78674C1.80373 32.8353 1.00684 33.6322 1.00684 34.6152V43.13C1.00684 44.113 1.80373 44.9099 2.78674 44.9099H11.3016C12.2846 44.9099 13.0815 44.113 13.0815 43.13V34.6152C13.0815 33.6322 12.2846 32.8353 11.3016 32.8353Z" fill="#FF0000"/>
<path d="M11.2869 44.5087H2.79967C2.43353 44.5077 2.08268 44.3617 1.82395 44.1026C1.56522 43.8435 1.41968 43.4925 1.41919 43.1263V34.6465C1.42016 34.2807 1.56592 33.9301 1.8246 33.6714C2.08328 33.4127 2.43385 33.267 2.79967 33.266H11.2869C11.6529 33.2665 12.0037 33.4121 12.2625 33.6709C12.5213 33.9297 12.6669 34.2805 12.6674 34.6465V43.1337C12.6654 43.4987 12.5192 43.8482 12.2606 44.1058C12.0019 44.3634 11.6519 44.5082 11.2869 44.5087ZM2.79967 33.4427C2.48251 33.4432 2.17848 33.5694 1.95422 33.7937C1.72995 34.0179 1.60374 34.322 1.60325 34.6391V43.1263C1.60325 43.4438 1.72925 43.7483 1.95357 43.973C2.17789 44.1977 2.48219 44.3241 2.79967 44.3246H11.2869C11.6044 44.3241 11.9087 44.1977 12.133 43.973C12.3573 43.7483 12.4833 43.4438 12.4833 43.1263V34.6465C12.4828 34.3293 12.3566 34.0253 12.1324 33.801C11.9081 33.5768 11.6041 33.4506 11.2869 33.4501L2.79967 33.4427Z" fill="white"/>
<path d="M8.82404 36.0564C9.18879 36.212 9.49984 36.4712 9.71859 36.8019C9.88593 37.0512 9.99616 37.3344 10.0414 37.6312C10.0867 37.928 10.0658 38.2311 9.98036 38.519C9.89491 38.8068 9.74696 39.0722 9.54707 39.2962C9.34719 39.5203 9.1003 39.6974 8.82404 39.815C8.39198 39.9985 7.92571 40.0876 7.45644 40.0764H6.44592V41.5931H4.80591V35.7951H7.45644C7.92571 35.7838 8.39198 35.8729 8.82404 36.0564ZM8.11907 38.5652C8.20635 38.487 8.27485 38.3901 8.31947 38.2818C8.36409 38.1734 8.38367 38.0564 8.37676 37.9394C8.3833 37.8219 8.36357 37.7045 8.31899 37.5956C8.27441 37.4867 8.20612 37.3891 8.11907 37.3099C7.90035 37.146 7.62963 37.0668 7.35704 37.0872H6.44592V38.7843H7.35704C7.62907 38.8047 7.89941 38.727 8.11907 38.5652Z" fill="white"/>
</svg>
