<svg width="317" height="132" viewBox="0 0 317 132" fill="none" xmlns="http://www.w3.org/2000/svg">
<rect x="1" y="1" width="315" height="130" rx="10" fill="white" stroke="#C4C4C4" stroke-linecap="round" stroke-dasharray="2 2"/>
<path d="M110.624 84.04C110.48 83.7627 110.28 83.5547 110.024 83.416C109.768 83.272 109.472 83.2 109.136 83.2C108.768 83.2 108.44 83.2827 108.152 83.448C107.864 83.6133 107.637 83.848 107.472 84.152C107.312 84.456 107.232 84.808 107.232 85.208C107.232 85.608 107.312 85.9627 107.472 86.272C107.637 86.576 107.864 86.8107 108.152 86.976C108.44 87.1413 108.768 87.224 109.136 87.224C109.632 87.224 110.035 87.0853 110.344 86.808C110.653 86.5307 110.843 86.1547 110.912 85.68H108.824V84.952H111.888V85.664C111.829 86.096 111.675 86.4933 111.424 86.856C111.179 87.2187 110.856 87.5093 110.456 87.728C110.061 87.9413 109.621 88.048 109.136 88.048C108.613 88.048 108.136 87.928 107.704 87.688C107.272 87.4427 106.928 87.104 106.672 86.672C106.421 86.24 106.296 85.752 106.296 85.208C106.296 84.664 106.421 84.176 106.672 83.744C106.928 83.312 107.272 82.976 107.704 82.736C108.141 82.4907 108.619 82.368 109.136 82.368C109.728 82.368 110.253 82.5147 110.712 82.808C111.176 83.096 111.512 83.5067 111.72 84.04H110.624ZM112.484 85.776C112.484 85.3333 112.574 84.9413 112.756 84.6C112.942 84.2587 113.193 83.9947 113.508 83.808C113.828 83.616 114.18 83.52 114.564 83.52C114.91 83.52 115.212 83.5893 115.468 83.728C115.729 83.8613 115.937 84.0293 116.092 84.232V83.592H117.012V88H116.092V87.344C115.937 87.552 115.726 87.7253 115.46 87.864C115.193 88.0027 114.889 88.072 114.548 88.072C114.169 88.072 113.822 87.976 113.508 87.784C113.193 87.5867 112.942 87.3147 112.756 86.968C112.574 86.616 112.484 86.2187 112.484 85.776ZM116.092 85.792C116.092 85.488 116.028 85.224 115.9 85C115.777 84.776 115.614 84.6053 115.412 84.488C115.209 84.3707 114.99 84.312 114.756 84.312C114.521 84.312 114.302 84.3707 114.1 84.488C113.897 84.6 113.732 84.768 113.604 84.992C113.481 85.2107 113.42 85.472 113.42 85.776C113.42 86.08 113.481 86.3467 113.604 86.576C113.732 86.8053 113.897 86.9813 114.1 87.104C114.308 87.2213 114.526 87.28 114.756 87.28C114.99 87.28 115.209 87.2213 115.412 87.104C115.614 86.9867 115.777 86.816 115.9 86.592C116.028 86.3627 116.092 86.096 116.092 85.792ZM123.545 83.52C123.892 83.52 124.201 83.592 124.473 83.736C124.751 83.88 124.967 84.0933 125.121 84.376C125.281 84.6587 125.361 85 125.361 85.4V88H124.457V85.536C124.457 85.1413 124.359 84.84 124.161 84.632C123.964 84.4187 123.695 84.312 123.353 84.312C123.012 84.312 122.74 84.4187 122.537 84.632C122.34 84.84 122.241 85.1413 122.241 85.536V88H121.337V85.536C121.337 85.1413 121.239 84.84 121.041 84.632C120.844 84.4187 120.575 84.312 120.233 84.312C119.892 84.312 119.62 84.4187 119.417 84.632C119.22 84.84 119.121 85.1413 119.121 85.536V88H118.209V83.592H119.121V84.096C119.271 83.9147 119.46 83.7733 119.689 83.672C119.919 83.5707 120.164 83.52 120.425 83.52C120.777 83.52 121.092 83.5947 121.369 83.744C121.647 83.8933 121.86 84.1093 122.009 84.392C122.143 84.1253 122.351 83.9147 122.633 83.76C122.916 83.6 123.22 83.52 123.545 83.52ZM127.434 84.248C127.589 84.0347 127.799 83.8613 128.066 83.728C128.338 83.5893 128.639 83.52 128.97 83.52C129.359 83.52 129.711 83.6133 130.026 83.8C130.341 83.9867 130.589 84.2533 130.77 84.6C130.951 84.9413 131.042 85.3333 131.042 85.776C131.042 86.2187 130.951 86.616 130.77 86.968C130.589 87.3147 130.338 87.5867 130.018 87.784C129.703 87.976 129.354 88.072 128.97 88.072C128.629 88.072 128.325 88.0053 128.058 87.872C127.797 87.7387 127.589 87.568 127.434 87.36V88H126.522V82.08H127.434V84.248ZM130.114 85.776C130.114 85.472 130.05 85.2107 129.922 84.992C129.799 84.768 129.634 84.6 129.426 84.488C129.223 84.3707 129.005 84.312 128.77 84.312C128.541 84.312 128.322 84.3707 128.114 84.488C127.911 84.6053 127.746 84.776 127.618 85C127.495 85.224 127.434 85.488 127.434 85.792C127.434 86.096 127.495 86.3627 127.618 86.592C127.746 86.816 127.911 86.9867 128.114 87.104C128.322 87.2213 128.541 87.28 128.77 87.28C129.005 87.28 129.223 87.2213 129.426 87.104C129.634 86.9813 129.799 86.8053 129.922 86.576C130.05 86.3467 130.114 86.08 130.114 85.776ZM131.64 85.776C131.64 85.3333 131.73 84.9413 131.912 84.6C132.098 84.2587 132.349 83.9947 132.664 83.808C132.984 83.616 133.336 83.52 133.72 83.52C134.066 83.52 134.368 83.5893 134.624 83.728C134.885 83.8613 135.093 84.0293 135.248 84.232V83.592H136.168V88H135.248V87.344C135.093 87.552 134.882 87.7253 134.616 87.864C134.349 88.0027 134.045 88.072 133.704 88.072C133.325 88.072 132.978 87.976 132.664 87.784C132.349 87.5867 132.098 87.3147 131.912 86.968C131.73 86.616 131.64 86.2187 131.64 85.776ZM135.248 85.792C135.248 85.488 135.184 85.224 135.056 85C134.933 84.776 134.77 84.6053 134.568 84.488C134.365 84.3707 134.146 84.312 133.912 84.312C133.677 84.312 133.458 84.3707 133.256 84.488C133.053 84.6 132.888 84.768 132.76 84.992C132.637 85.2107 132.576 85.472 132.576 85.776C132.576 86.08 132.637 86.3467 132.76 86.576C132.888 86.8053 133.053 86.9813 133.256 87.104C133.464 87.2213 133.682 87.28 133.912 87.28C134.146 87.28 134.365 87.2213 134.568 87.104C134.77 86.9867 134.933 86.816 135.056 86.592C135.184 86.3627 135.248 86.096 135.248 85.792ZM138.278 84.232C138.411 84.008 138.587 83.8347 138.806 83.712C139.03 83.584 139.294 83.52 139.598 83.52V84.464H139.366C139.008 84.464 138.736 84.5547 138.55 84.736C138.368 84.9173 138.278 85.232 138.278 85.68V88H137.366V83.592H138.278V84.232ZM143.578 84.336V86.776C143.578 86.9413 143.615 87.0613 143.69 87.136C143.77 87.2053 143.903 87.24 144.09 87.24H144.65V88H143.93C143.519 88 143.205 87.904 142.986 87.712C142.767 87.52 142.658 87.208 142.658 86.776V84.336H142.138V83.592H142.658V82.496H143.578V83.592H144.65V84.336H143.578ZM149.531 85.688C149.531 85.8533 149.52 86.0027 149.499 86.136H146.131C146.157 86.488 146.288 86.7707 146.523 86.984C146.757 87.1973 147.045 87.304 147.387 87.304C147.877 87.304 148.224 87.0987 148.427 86.688H149.411C149.277 87.0933 149.035 87.4267 148.683 87.688C148.336 87.944 147.904 88.072 147.387 88.072C146.965 88.072 146.587 87.9787 146.251 87.792C145.92 87.6 145.659 87.3333 145.467 86.992C145.28 86.6453 145.187 86.2453 145.187 85.792C145.187 85.3387 145.277 84.9413 145.459 84.6C145.645 84.2533 145.904 83.9867 146.235 83.8C146.571 83.6133 146.955 83.52 147.387 83.52C147.803 83.52 148.173 83.6107 148.499 83.792C148.824 83.9733 149.077 84.2293 149.259 84.56C149.44 84.8853 149.531 85.2613 149.531 85.688ZM148.579 85.4C148.573 85.064 148.453 84.7947 148.219 84.592C147.984 84.3893 147.693 84.288 147.347 84.288C147.032 84.288 146.763 84.3893 146.539 84.592C146.315 84.7893 146.181 85.0587 146.139 85.4H148.579ZM155.764 83.52C156.111 83.52 156.42 83.592 156.692 83.736C156.969 83.88 157.185 84.0933 157.34 84.376C157.5 84.6587 157.58 85 157.58 85.4V88H156.676V85.536C156.676 85.1413 156.577 84.84 156.38 84.632C156.183 84.4187 155.913 84.312 155.572 84.312C155.231 84.312 154.959 84.4187 154.756 84.632C154.559 84.84 154.46 85.1413 154.46 85.536V88H153.556V85.536C153.556 85.1413 153.457 84.84 153.26 84.632C153.063 84.4187 152.793 84.312 152.452 84.312C152.111 84.312 151.839 84.4187 151.636 84.632C151.439 84.84 151.34 85.1413 151.34 85.536V88H150.428V83.592H151.34V84.096C151.489 83.9147 151.679 83.7733 151.908 83.672C152.137 83.5707 152.383 83.52 152.644 83.52C152.996 83.52 153.311 83.5947 153.588 83.744C153.865 83.8933 154.079 84.1093 154.228 84.392C154.361 84.1253 154.569 83.9147 154.852 83.76C155.135 83.6 155.439 83.52 155.764 83.52ZM159.653 84.24C159.807 84.0373 160.018 83.8667 160.285 83.728C160.551 83.5893 160.853 83.52 161.189 83.52C161.573 83.52 161.922 83.616 162.237 83.808C162.557 83.9947 162.807 84.2587 162.989 84.6C163.17 84.9413 163.261 85.3333 163.261 85.776C163.261 86.2187 163.17 86.616 162.989 86.968C162.807 87.3147 162.557 87.5867 162.237 87.784C161.922 87.976 161.573 88.072 161.189 88.072C160.853 88.072 160.554 88.0053 160.293 87.872C160.031 87.7333 159.818 87.5627 159.653 87.36V90.096H158.741V83.592H159.653V84.24ZM162.333 85.776C162.333 85.472 162.269 85.2107 162.141 84.992C162.018 84.768 161.853 84.6 161.645 84.488C161.442 84.3707 161.223 84.312 160.989 84.312C160.759 84.312 160.541 84.3707 160.333 84.488C160.13 84.6053 159.965 84.776 159.837 85C159.714 85.224 159.653 85.488 159.653 85.792C159.653 86.096 159.714 86.3627 159.837 86.592C159.965 86.816 160.13 86.9867 160.333 87.104C160.541 87.2213 160.759 87.28 160.989 87.28C161.223 87.28 161.442 87.2213 161.645 87.104C161.853 86.9813 162.018 86.8053 162.141 86.576C162.269 86.3467 162.333 86.08 162.333 85.776ZM163.859 85.776C163.859 85.3333 163.949 84.9413 164.131 84.6C164.317 84.2587 164.568 83.9947 164.883 83.808C165.203 83.616 165.555 83.52 165.939 83.52C166.285 83.52 166.587 83.5893 166.843 83.728C167.104 83.8613 167.312 84.0293 167.467 84.232V83.592H168.387V88H167.467V87.344C167.312 87.552 167.101 87.7253 166.835 87.864C166.568 88.0027 166.264 88.072 165.923 88.072C165.544 88.072 165.197 87.976 164.883 87.784C164.568 87.5867 164.317 87.3147 164.131 86.968C163.949 86.616 163.859 86.2187 163.859 85.776ZM167.467 85.792C167.467 85.488 167.403 85.224 167.275 85C167.152 84.776 166.989 84.6053 166.787 84.488C166.584 84.3707 166.365 84.312 166.131 84.312C165.896 84.312 165.677 84.3707 165.475 84.488C165.272 84.6 165.107 84.768 164.979 84.992C164.856 85.2107 164.795 85.472 164.795 85.776C164.795 86.08 164.856 86.3467 164.979 86.576C165.107 86.8053 165.272 86.9813 165.475 87.104C165.683 87.2213 165.901 87.28 166.131 87.28C166.365 87.28 166.584 87.2213 166.787 87.104C166.989 86.9867 167.152 86.816 167.275 86.592C167.403 86.3627 167.467 86.096 167.467 85.792ZM170.648 84.336V86.776C170.648 86.9413 170.686 87.0613 170.76 87.136C170.84 87.2053 170.974 87.24 171.16 87.24H171.72V88H171C170.59 88 170.275 87.904 170.056 87.712C169.838 87.52 169.728 87.208 169.728 86.776V84.336H169.208V83.592H169.728V82.496H170.648V83.592H171.72V84.336H170.648ZM175.551 84.24C175.706 84.0373 175.916 83.8667 176.183 83.728C176.45 83.5893 176.751 83.52 177.087 83.52C177.471 83.52 177.82 83.616 178.135 83.808C178.455 83.9947 178.706 84.2587 178.887 84.6C179.068 84.9413 179.159 85.3333 179.159 85.776C179.159 86.2187 179.068 86.616 178.887 86.968C178.706 87.3147 178.455 87.5867 178.135 87.784C177.82 87.976 177.471 88.072 177.087 88.072C176.751 88.072 176.452 88.0053 176.191 87.872C175.93 87.7333 175.716 87.5627 175.551 87.36V90.096H174.639V83.592H175.551V84.24ZM178.231 85.776C178.231 85.472 178.167 85.2107 178.039 84.992C177.916 84.768 177.751 84.6 177.543 84.488C177.34 84.3707 177.122 84.312 176.887 84.312C176.658 84.312 176.439 84.3707 176.231 84.488C176.028 84.6053 175.863 84.776 175.735 85C175.612 85.224 175.551 85.488 175.551 85.792C175.551 86.096 175.612 86.3627 175.735 86.592C175.863 86.816 176.028 86.9867 176.231 87.104C176.439 87.2213 176.658 87.28 176.887 87.28C177.122 87.28 177.34 87.2213 177.543 87.104C177.751 86.9813 177.916 86.8053 178.039 86.576C178.167 86.3467 178.231 86.08 178.231 85.776ZM179.757 85.776C179.757 85.3333 179.848 84.9413 180.029 84.6C180.216 84.2587 180.466 83.9947 180.781 83.808C181.101 83.616 181.453 83.52 181.837 83.52C182.184 83.52 182.485 83.5893 182.741 83.728C183.002 83.8613 183.21 84.0293 183.365 84.232V83.592H184.285V88H183.365V87.344C183.21 87.552 183 87.7253 182.733 87.864C182.466 88.0027 182.162 88.072 181.821 88.072C181.442 88.072 181.096 87.976 180.781 87.784C180.466 87.5867 180.216 87.3147 180.029 86.968C179.848 86.616 179.757 86.2187 179.757 85.776ZM183.365 85.792C183.365 85.488 183.301 85.224 183.173 85C183.05 84.776 182.888 84.6053 182.685 84.488C182.482 84.3707 182.264 84.312 182.029 84.312C181.794 84.312 181.576 84.3707 181.373 84.488C181.17 84.6 181.005 84.768 180.877 84.992C180.754 85.2107 180.693 85.472 180.693 85.776C180.693 86.08 180.754 86.3467 180.877 86.576C181.005 86.8053 181.17 86.9813 181.373 87.104C181.581 87.2213 181.8 87.28 182.029 87.28C182.264 87.28 182.482 87.2213 182.685 87.104C182.888 86.9867 183.05 86.816 183.173 86.592C183.301 86.3627 183.365 86.096 183.365 85.792ZM186.395 84.232C186.528 84.008 186.704 83.8347 186.923 83.712C187.147 83.584 187.411 83.52 187.715 83.52V84.464H187.483C187.125 84.464 186.853 84.5547 186.667 84.736C186.485 84.9173 186.395 85.232 186.395 85.68V88H185.483V83.592H186.395V84.232ZM190.297 85.8L192.329 88H191.097L189.465 86.104V88H188.553V82.08H189.465V85.52L191.065 83.592H192.329L190.297 85.8ZM193.447 83.008C193.281 83.008 193.143 82.952 193.031 82.84C192.919 82.728 192.863 82.5893 192.863 82.424C192.863 82.2587 192.919 82.12 193.031 82.008C193.143 81.896 193.281 81.84 193.447 81.84C193.607 81.84 193.743 81.896 193.855 82.008C193.967 82.12 194.023 82.2587 194.023 82.424C194.023 82.5893 193.967 82.728 193.855 82.84C193.743 82.952 193.607 83.008 193.447 83.008ZM193.895 83.592V88H192.983V83.592H193.895ZM196.004 84.232C196.138 84.008 196.314 83.8347 196.532 83.712C196.756 83.584 197.02 83.52 197.324 83.52V84.464H197.092C196.735 84.464 196.463 84.5547 196.276 84.736C196.095 84.9173 196.004 85.232 196.004 85.68V88H195.092V83.592H196.004V84.232ZM203.499 83.52C203.845 83.52 204.155 83.592 204.427 83.736C204.704 83.88 204.92 84.0933 205.075 84.376C205.235 84.6587 205.315 85 205.315 85.4V88H204.411V85.536C204.411 85.1413 204.312 84.84 204.115 84.632C203.917 84.4187 203.648 84.312 203.307 84.312C202.965 84.312 202.693 84.4187 202.491 84.632C202.293 84.84 202.195 85.1413 202.195 85.536V88H201.291V85.536C201.291 85.1413 201.192 84.84 200.995 84.632C200.797 84.4187 200.528 84.312 200.187 84.312C199.845 84.312 199.573 84.4187 199.371 84.632C199.173 84.84 199.075 85.1413 199.075 85.536V88H198.163V83.592H199.075V84.096C199.224 83.9147 199.413 83.7733 199.643 83.672C199.872 83.5707 200.117 83.52 200.379 83.52C200.731 83.52 201.045 83.5947 201.323 83.744C201.6 83.8933 201.813 84.1093 201.963 84.392C202.096 84.1253 202.304 83.9147 202.587 83.76C202.869 83.6 203.173 83.52 203.499 83.52ZM210.467 83.592V88H209.555V87.48C209.411 87.6613 209.222 87.8053 208.987 87.912C208.758 88.0133 208.512 88.064 208.251 88.064C207.904 88.064 207.592 87.992 207.315 87.848C207.043 87.704 206.827 87.4907 206.667 87.208C206.512 86.9253 206.435 86.584 206.435 86.184V83.592H207.339V86.048C207.339 86.4427 207.438 86.7467 207.635 86.96C207.832 87.168 208.102 87.272 208.443 87.272C208.784 87.272 209.054 87.168 209.251 86.96C209.454 86.7467 209.555 86.4427 209.555 86.048V83.592H210.467Z" fill="#797979"/>
<path d="M159 49.8001C159 51.7097 158.241 53.541 156.891 54.8913C155.541 56.2415 153.71 57.0001 151.8 57.0001C149.89 57.0001 148.059 56.2415 146.709 54.8913C145.359 53.541 144.6 51.7097 144.6 49.8001C144.6 47.8905 145.359 46.0592 146.709 44.7089C148.059 43.3587 149.89 42.6001 151.8 42.6001C153.71 42.6001 155.541 43.3587 156.891 44.7089C158.241 46.0592 159 47.8905 159 49.8001ZM152.6 46.6001C152.6 46.3879 152.516 46.1844 152.366 46.0344C152.216 45.8844 152.012 45.8001 151.8 45.8001C151.588 45.8001 151.384 45.8844 151.234 46.0344C151.084 46.1844 151 46.3879 151 46.6001V49.0001H148.6C148.388 49.0001 148.184 49.0844 148.034 49.2344C147.884 49.3844 147.8 49.5879 147.8 49.8001C147.8 50.0123 147.884 50.2158 148.034 50.3658C148.184 50.5158 148.388 50.6001 148.6 50.6001H151V53.0001C151 53.2123 151.084 53.4158 151.234 53.5658C151.384 53.7158 151.588 53.8001 151.8 53.8001C152.012 53.8001 152.216 53.7158 152.366 53.5658C152.516 53.4158 152.6 53.2123 152.6 53.0001V50.6001H155C155.212 50.6001 155.416 50.5158 155.566 50.3658C155.716 50.2158 155.8 50.0123 155.8 49.8001C155.8 49.5879 155.716 49.3844 155.566 49.2344C155.416 49.0844 155.212 49.0001 155 49.0001H152.6V46.6001ZM165.4 47.4001H160.269C160.112 46.8474 159.902 46.3115 159.64 45.8001H165.4C166.673 45.8001 167.894 46.3058 168.794 47.206C169.694 48.1062 170.2 49.3271 170.2 50.6001V63.4001C170.2 64.6731 169.694 65.894 168.794 66.7942C167.894 67.6944 166.673 68.2001 165.4 68.2001H152.6C151.327 68.2001 150.106 67.6944 149.206 66.7942C148.306 65.894 147.8 64.6731 147.8 63.4001V57.6401C148.307 57.8993 148.842 58.1105 149.4 58.2689V63.4001C149.4 63.9969 149.563 64.5553 149.848 65.0321L157.318 57.6913C157.767 57.2506 158.371 57.0037 159 57.0037C159.629 57.0037 160.233 57.2506 160.682 57.6913L168.154 65.0321C168.447 64.5383 168.601 63.9744 168.6 63.4001V50.6001C168.6 49.7514 168.263 48.9375 167.663 48.3374C167.063 47.7372 166.249 47.4001 165.4 47.4001ZM165.4 53.0001C165.4 53.3153 165.338 53.6274 165.217 53.9185C165.097 54.2097 164.92 54.4743 164.697 54.6972C164.474 54.92 164.21 55.0968 163.918 55.2174C163.627 55.338 163.315 55.4001 163 55.4001C162.685 55.4001 162.373 55.338 162.082 55.2174C161.79 55.0968 161.526 54.92 161.303 54.6972C161.08 54.4743 160.903 54.2097 160.783 53.9185C160.662 53.6274 160.6 53.3153 160.6 53.0001C160.6 52.3636 160.853 51.7531 161.303 51.303C161.753 50.853 162.363 50.6001 163 50.6001C163.636 50.6001 164.247 50.853 164.697 51.303C165.147 51.7531 165.4 52.3636 165.4 53.0001ZM163.8 53.0001C163.8 52.7879 163.716 52.5844 163.566 52.4344C163.416 52.2844 163.212 52.2001 163 52.2001C162.788 52.2001 162.584 52.2844 162.434 52.4344C162.284 52.5844 162.2 52.7879 162.2 53.0001C162.2 53.2123 162.284 53.4158 162.434 53.5658C162.584 53.7158 162.788 53.8001 163 53.8001C163.212 53.8001 163.416 53.7158 163.566 53.5658C163.716 53.4158 163.8 53.2123 163.8 53.0001ZM150.981 66.1617C151.472 66.4499 152.031 66.6013 152.6 66.6001H165.4C165.992 66.6001 166.544 66.4401 167.019 66.1617L159.56 58.8337C159.41 58.6871 159.209 58.605 159 58.605C158.791 58.605 158.59 58.6871 158.44 58.8337L150.981 66.1617Z" fill="#797979"/>
</svg>
