<svg width="317" height="132" viewBox="0 0 317 132" fill="none" xmlns="http://www.w3.org/2000/svg">
<rect x="1" y="1" width="315" height="130" rx="10" fill="white" stroke="#C4C4C4" stroke-linecap="round" stroke-dasharray="2 2"/>
<path d="M130.432 88.056C130.059 88.056 129.723 87.992 129.424 87.864C129.125 87.7307 128.891 87.544 128.72 87.304C128.549 87.064 128.464 86.784 128.464 86.464H129.44C129.461 86.704 129.555 86.9013 129.72 87.056C129.891 87.2107 130.128 87.288 130.432 87.288C130.747 87.288 130.992 87.2133 131.168 87.064C131.344 86.9093 131.432 86.712 131.432 86.472C131.432 86.2853 131.376 86.1333 131.264 86.016C131.157 85.8987 131.021 85.808 130.856 85.744C130.696 85.68 130.472 85.6107 130.184 85.536C129.821 85.44 129.525 85.344 129.296 85.248C129.072 85.1467 128.88 84.992 128.72 84.784C128.56 84.576 128.48 84.2987 128.48 83.952C128.48 83.632 128.56 83.352 128.72 83.112C128.88 82.872 129.104 82.688 129.392 82.56C129.68 82.432 130.013 82.368 130.392 82.368C130.931 82.368 131.371 82.504 131.712 82.776C132.059 83.0427 132.251 83.4107 132.288 83.88H131.28C131.264 83.6773 131.168 83.504 130.992 83.36C130.816 83.216 130.584 83.144 130.296 83.144C130.035 83.144 129.821 83.2107 129.656 83.344C129.491 83.4773 129.408 83.6693 129.408 83.92C129.408 84.0907 129.459 84.232 129.56 84.344C129.667 84.4507 129.8 84.536 129.96 84.6C130.12 84.664 130.339 84.7333 130.616 84.808C130.984 84.9093 131.283 85.0107 131.512 85.112C131.747 85.2133 131.944 85.3707 132.104 85.584C132.269 85.792 132.352 86.072 132.352 86.424C132.352 86.7067 132.275 86.9733 132.12 87.224C131.971 87.4747 131.749 87.6773 131.456 87.832C131.168 87.9813 130.827 88.056 130.432 88.056ZM137.468 85.688C137.468 85.8533 137.457 86.0027 137.436 86.136H134.068C134.095 86.488 134.225 86.7707 134.46 86.984C134.695 87.1973 134.983 87.304 135.324 87.304C135.815 87.304 136.161 87.0987 136.364 86.688H137.348C137.215 87.0933 136.972 87.4267 136.62 87.688C136.273 87.944 135.841 88.072 135.324 88.072C134.903 88.072 134.524 87.9787 134.188 87.792C133.857 87.6 133.596 87.3333 133.404 86.992C133.217 86.6453 133.124 86.2453 133.124 85.792C133.124 85.3387 133.215 84.9413 133.396 84.6C133.583 84.2533 133.841 83.9867 134.172 83.8C134.508 83.6133 134.892 83.52 135.324 83.52C135.74 83.52 136.111 83.6107 136.436 83.792C136.761 83.9733 137.015 84.2293 137.196 84.56C137.377 84.8853 137.468 85.2613 137.468 85.688ZM136.516 85.4C136.511 85.064 136.391 84.7947 136.156 84.592C135.921 84.3893 135.631 84.288 135.284 84.288C134.969 84.288 134.7 84.3893 134.476 84.592C134.252 84.7893 134.119 85.0587 134.076 85.4H136.516ZM139.278 84.232C139.411 84.008 139.587 83.8347 139.806 83.712C140.03 83.584 140.294 83.52 140.598 83.52V84.464H140.366C140.008 84.464 139.736 84.5547 139.55 84.736C139.368 84.9173 139.278 85.232 139.278 85.68V88H138.366V83.592H139.278V84.232ZM142.5 84.336V86.776C142.5 86.9413 142.537 87.0613 142.612 87.136C142.692 87.2053 142.825 87.24 143.012 87.24H143.572V88H142.852C142.441 88 142.127 87.904 141.908 87.712C141.689 87.52 141.58 87.208 141.58 86.776V84.336H141.06V83.592H141.58V82.496H142.5V83.592H143.572V84.336H142.5ZM144.877 83.008C144.711 83.008 144.573 82.952 144.461 82.84C144.349 82.728 144.293 82.5893 144.293 82.424C144.293 82.2587 144.349 82.12 144.461 82.008C144.573 81.896 144.711 81.84 144.877 81.84C145.037 81.84 145.173 81.896 145.285 82.008C145.397 82.12 145.453 82.2587 145.453 82.424C145.453 82.5893 145.397 82.728 145.285 82.84C145.173 82.952 145.037 83.008 144.877 83.008ZM145.325 83.592V88H144.413V83.592H145.325ZM148.37 84.336H147.554V88H146.634V84.336H146.114V83.592H146.634V83.28C146.634 82.7733 146.767 82.4053 147.034 82.176C147.306 81.9413 147.73 81.824 148.306 81.824V82.584C148.029 82.584 147.834 82.6373 147.722 82.744C147.61 82.8453 147.554 83.024 147.554 83.28V83.592H148.37V84.336ZM149.642 83.008C149.477 83.008 149.338 82.952 149.226 82.84C149.114 82.728 149.058 82.5893 149.058 82.424C149.058 82.2587 149.114 82.12 149.226 82.008C149.338 81.896 149.477 81.84 149.642 81.84C149.802 81.84 149.938 81.896 150.05 82.008C150.162 82.12 150.218 82.2587 150.218 82.424C150.218 82.5893 150.162 82.728 150.05 82.84C149.938 82.952 149.802 83.008 149.642 83.008ZM150.09 83.592V88H149.178V83.592H150.09ZM153.032 85.8L155.064 88H153.832L152.2 86.104V88H151.288V82.08H152.2V85.52L153.8 83.592H155.064L153.032 85.8ZM155.413 85.776C155.413 85.3333 155.504 84.9413 155.685 84.6C155.872 84.2587 156.123 83.9947 156.437 83.808C156.757 83.616 157.109 83.52 157.493 83.52C157.84 83.52 158.141 83.5893 158.397 83.728C158.659 83.8613 158.867 84.0293 159.021 84.232V83.592H159.941V88H159.021V87.344C158.867 87.552 158.656 87.7253 158.389 87.864C158.123 88.0027 157.819 88.072 157.477 88.072C157.099 88.072 156.752 87.976 156.437 87.784C156.123 87.5867 155.872 87.3147 155.685 86.968C155.504 86.616 155.413 86.2187 155.413 85.776ZM159.021 85.792C159.021 85.488 158.957 85.224 158.829 85C158.707 84.776 158.544 84.6053 158.341 84.488C158.139 84.3707 157.92 84.312 157.685 84.312C157.451 84.312 157.232 84.3707 157.029 84.488C156.827 84.6 156.661 84.768 156.533 84.992C156.411 85.2107 156.349 85.472 156.349 85.776C156.349 86.08 156.411 86.3467 156.533 86.576C156.661 86.8053 156.827 86.9813 157.029 87.104C157.237 87.2213 157.456 87.28 157.685 87.28C157.92 87.28 158.139 87.2213 158.341 87.104C158.544 86.9867 158.707 86.816 158.829 86.592C158.957 86.3627 159.021 86.096 159.021 85.792ZM162.203 84.336V86.776C162.203 86.9413 162.24 87.0613 162.315 87.136C162.395 87.2053 162.528 87.24 162.715 87.24H163.275V88H162.555C162.144 88 161.83 87.904 161.611 87.712C161.392 87.52 161.283 87.208 161.283 86.776V84.336H160.763V83.592H161.283V82.496H162.203V83.592H163.275V84.336H162.203ZM167.258 84.336V86.776C167.258 86.9413 167.295 87.0613 167.37 87.136C167.45 87.2053 167.583 87.24 167.77 87.24H168.33V88H167.61C167.199 88 166.884 87.904 166.666 87.712C166.447 87.52 166.338 87.208 166.338 86.776V84.336H165.818V83.592H166.338V82.496H167.258V83.592H168.33V84.336H167.258ZM168.866 85.776C168.866 85.3333 168.957 84.9413 169.138 84.6C169.325 84.2587 169.576 83.9947 169.89 83.808C170.21 83.616 170.562 83.52 170.946 83.52C171.293 83.52 171.594 83.5893 171.85 83.728C172.112 83.8613 172.32 84.0293 172.474 84.232V83.592H173.394V88H172.474V87.344C172.32 87.552 172.109 87.7253 171.842 87.864C171.576 88.0027 171.272 88.072 170.93 88.072C170.552 88.072 170.205 87.976 169.89 87.784C169.576 87.5867 169.325 87.3147 169.138 86.968C168.957 86.616 168.866 86.2187 168.866 85.776ZM172.474 85.792C172.474 85.488 172.41 85.224 172.282 85C172.16 84.776 171.997 84.6053 171.794 84.488C171.592 84.3707 171.373 84.312 171.138 84.312C170.904 84.312 170.685 84.3707 170.482 84.488C170.28 84.6 170.114 84.768 169.986 84.992C169.864 85.2107 169.802 85.472 169.802 85.776C169.802 86.08 169.864 86.3467 169.986 86.576C170.114 86.8053 170.28 86.9813 170.482 87.104C170.69 87.2213 170.909 87.28 171.138 87.28C171.373 87.28 171.592 87.2213 171.794 87.104C171.997 86.9867 172.16 86.816 172.282 86.592C172.41 86.3627 172.474 86.096 172.474 85.792ZM176.816 83.52C177.163 83.52 177.472 83.592 177.744 83.736C178.022 83.88 178.238 84.0933 178.392 84.376C178.547 84.6587 178.624 85 178.624 85.4V88H177.72V85.536C177.72 85.1413 177.622 84.84 177.424 84.632C177.227 84.4187 176.958 84.312 176.616 84.312C176.275 84.312 176.003 84.4187 175.8 84.632C175.603 84.84 175.504 85.1413 175.504 85.536V88H174.592V83.592H175.504V84.096C175.654 83.9147 175.843 83.7733 176.072 83.672C176.307 83.5707 176.555 83.52 176.816 83.52ZM179.484 85.776C179.484 85.3333 179.574 84.9413 179.756 84.6C179.942 84.2587 180.193 83.9947 180.508 83.808C180.828 83.616 181.18 83.52 181.564 83.52C181.91 83.52 182.212 83.5893 182.468 83.728C182.729 83.8613 182.937 84.0293 183.092 84.232V83.592H184.012V88H183.092V87.344C182.937 87.552 182.726 87.7253 182.46 87.864C182.193 88.0027 181.889 88.072 181.548 88.072C181.169 88.072 180.822 87.976 180.508 87.784C180.193 87.5867 179.942 87.3147 179.756 86.968C179.574 86.616 179.484 86.2187 179.484 85.776ZM183.092 85.792C183.092 85.488 183.028 85.224 182.9 85C182.777 84.776 182.614 84.6053 182.412 84.488C182.209 84.3707 181.99 84.312 181.756 84.312C181.521 84.312 181.302 84.3707 181.1 84.488C180.897 84.6 180.732 84.768 180.604 84.992C180.481 85.2107 180.42 85.472 180.42 85.776C180.42 86.08 180.481 86.3467 180.604 86.576C180.732 86.8053 180.897 86.9813 181.1 87.104C181.308 87.2213 181.526 87.28 181.756 87.28C181.99 87.28 182.209 87.2213 182.412 87.104C182.614 86.9867 182.777 86.816 182.9 86.592C183.028 86.3627 183.092 86.096 183.092 85.792ZM187.489 83.52C187.825 83.52 188.124 83.592 188.385 83.736C188.652 83.88 188.86 84.0933 189.009 84.376C189.164 84.6587 189.241 85 189.241 85.4V88H188.337V85.536C188.337 85.1413 188.239 84.84 188.041 84.632C187.844 84.4187 187.575 84.312 187.233 84.312C186.892 84.312 186.62 84.4187 186.417 84.632C186.22 84.84 186.121 85.1413 186.121 85.536V88H185.209V82.08H186.121V84.104C186.276 83.9173 186.471 83.7733 186.705 83.672C186.945 83.5707 187.207 83.52 187.489 83.52Z" fill="#797979"/>
<path d="M159 49.8001C159 51.7097 158.241 53.541 156.891 54.8913C155.541 56.2415 153.71 57.0001 151.8 57.0001C149.89 57.0001 148.059 56.2415 146.709 54.8913C145.359 53.541 144.6 51.7097 144.6 49.8001C144.6 47.8905 145.359 46.0592 146.709 44.7089C148.059 43.3587 149.89 42.6001 151.8 42.6001C153.71 42.6001 155.541 43.3587 156.891 44.7089C158.241 46.0592 159 47.8905 159 49.8001ZM152.6 46.6001C152.6 46.3879 152.516 46.1844 152.366 46.0344C152.216 45.8844 152.012 45.8001 151.8 45.8001C151.588 45.8001 151.384 45.8844 151.234 46.0344C151.084 46.1844 151 46.3879 151 46.6001V49.0001H148.6C148.388 49.0001 148.184 49.0844 148.034 49.2344C147.884 49.3844 147.8 49.5879 147.8 49.8001C147.8 50.0123 147.884 50.2158 148.034 50.3658C148.184 50.5158 148.388 50.6001 148.6 50.6001H151V53.0001C151 53.2123 151.084 53.4158 151.234 53.5658C151.384 53.7158 151.588 53.8001 151.8 53.8001C152.012 53.8001 152.216 53.7158 152.366 53.5658C152.516 53.4158 152.6 53.2123 152.6 53.0001V50.6001H155C155.212 50.6001 155.416 50.5158 155.566 50.3658C155.716 50.2158 155.8 50.0123 155.8 49.8001C155.8 49.5879 155.716 49.3844 155.566 49.2344C155.416 49.0844 155.212 49.0001 155 49.0001H152.6V46.6001ZM165.4 47.4001H160.269C160.112 46.8474 159.902 46.3115 159.64 45.8001H165.4C166.673 45.8001 167.894 46.3058 168.794 47.206C169.694 48.1062 170.2 49.3271 170.2 50.6001V63.4001C170.2 64.6731 169.694 65.894 168.794 66.7942C167.894 67.6944 166.673 68.2001 165.4 68.2001H152.6C151.327 68.2001 150.106 67.6944 149.206 66.7942C148.306 65.894 147.8 64.6731 147.8 63.4001V57.6401C148.307 57.8993 148.842 58.1105 149.4 58.2689V63.4001C149.4 63.9969 149.563 64.5553 149.848 65.0321L157.318 57.6913C157.767 57.2506 158.371 57.0037 159 57.0037C159.629 57.0037 160.233 57.2506 160.682 57.6913L168.154 65.0321C168.447 64.5383 168.601 63.9744 168.6 63.4001V50.6001C168.6 49.7514 168.263 48.9375 167.663 48.3374C167.063 47.7372 166.249 47.4001 165.4 47.4001ZM165.4 53.0001C165.4 53.3153 165.338 53.6274 165.217 53.9185C165.097 54.2097 164.92 54.4743 164.697 54.6972C164.474 54.92 164.21 55.0968 163.918 55.2174C163.627 55.338 163.315 55.4001 163 55.4001C162.685 55.4001 162.373 55.338 162.082 55.2174C161.79 55.0968 161.526 54.92 161.303 54.6972C161.08 54.4743 160.903 54.2097 160.783 53.9185C160.662 53.6274 160.6 53.3153 160.6 53.0001C160.6 52.3636 160.853 51.7531 161.303 51.303C161.753 50.853 162.363 50.6001 163 50.6001C163.636 50.6001 164.247 50.853 164.697 51.303C165.147 51.7531 165.4 52.3636 165.4 53.0001ZM163.8 53.0001C163.8 52.7879 163.716 52.5844 163.566 52.4344C163.416 52.2844 163.212 52.2001 163 52.2001C162.788 52.2001 162.584 52.2844 162.434 52.4344C162.284 52.5844 162.2 52.7879 162.2 53.0001C162.2 53.2123 162.284 53.4158 162.434 53.5658C162.584 53.7158 162.788 53.8001 163 53.8001C163.212 53.8001 163.416 53.7158 163.566 53.5658C163.716 53.4158 163.8 53.2123 163.8 53.0001ZM150.981 66.1617C151.472 66.4499 152.031 66.6013 152.6 66.6001H165.4C165.992 66.6001 166.544 66.4401 167.019 66.1617L159.56 58.8337C159.41 58.6871 159.209 58.605 159 58.605C158.791 58.605 158.59 58.6871 158.44 58.8337L150.981 66.1617Z" fill="#797979"/>
</svg>
