<svg width="32" height="32" viewBox="0 0 32 32" fill="none" xmlns="http://www.w3.org/2000/svg">
<path d="M23 3C23 2.46957 23.2107 1.96086 23.5858 1.58579C23.9609 1.21071 24.4696 1 25 1H29C29.5304 1 30.0391 1.21071 30.4142 1.58579C30.7893 1.96086 31 2.46957 31 3V9C31 9.53043 30.7893 10.0391 30.4142 10.4142C30.0391 10.7893 29.5304 11 29 11H28V30C28 30.2652 27.8946 30.5196 27.7071 30.7071C27.5196 30.8946 27.2652 31 27 31C26.7348 31 26.4804 30.8946 26.2929 30.7071C26.1054 30.5196 26 30.2652 26 30V11H25C24.4696 11 23.9609 10.7893 23.5858 10.4142C23.2107 10.0391 23 9.53043 23 9V3ZM21.5 3H10.407C9.49689 2.99993 8.61397 3.31022 7.90401 3.87965C7.19405 4.44907 6.69949 5.24358 6.502 6.132L5.864 9H5C4.73478 9 4.48043 9.10536 4.29289 9.29289C4.10536 9.48043 4 9.73478 4 10C4 10.2652 4.10536 10.5196 4.29289 10.7071C4.48043 10.8946 4.73478 11 5 11H5.42L5.09 12.485C4.45763 12.8287 3.92969 13.3366 3.56186 13.9552C3.19402 14.5739 2.99991 15.2803 3 16V26C3 26.7956 3.31607 27.5587 3.87868 28.1213C4.44129 28.6839 5.20435 29 6 29H7C7.79565 29 8.55871 28.6839 9.12132 28.1213C9.68393 27.5587 10 26.7956 10 26V25H22V26C21.9998 26.7091 22.2507 27.3954 22.7084 27.9371C23.1661 28.4788 23.8008 28.8408 24.5 28.959V26.866C24.348 26.7782 24.2218 26.652 24.134 26.5C24.0462 26.348 24 26.1755 24 26V25H24.5V23H5V16C5 15.4696 5.21071 14.9609 5.58579 14.5858C5.96086 14.2107 6.46957 14 7 14H24.5V12.465C24.0386 12.3989 23.5951 12.2408 23.196 12H7.246L8.454 6.566C8.55273 6.12187 8.79993 5.72468 9.15481 5.43998C9.50969 5.15528 9.95103 5.00008 10.406 5H21.5V3ZM5 26V25H8V26C8 26.2652 7.89464 26.5196 7.70711 26.7071C7.51957 26.8946 7.26522 27 7 27H6C5.73478 27 5.48043 26.8946 5.29289 26.7071C5.10536 26.5196 5 26.2652 5 26ZM12.5 20C12.5 19.7348 12.6054 19.4804 12.7929 19.2929C12.9804 19.1054 13.2348 19 13.5 19H18.5C18.7652 19 19.0196 19.1054 19.2071 19.2929C19.3946 19.4804 19.5 19.7348 19.5 20C19.5 20.2652 19.3946 20.5196 19.2071 20.7071C19.0196 20.8946 18.7652 21 18.5 21H13.5C13.2348 21 12.9804 20.8946 12.7929 20.7071C12.6054 20.5196 12.5 20.2652 12.5 20ZM9.5 19C9.89782 19 10.2794 18.842 10.5607 18.5607C10.842 18.2794 11 17.8978 11 17.5C11 17.1022 10.842 16.7206 10.5607 16.4393C10.2794 16.158 9.89782 16 9.5 16C9.10218 16 8.72064 16.158 8.43934 16.4393C8.15804 16.7206 8 17.1022 8 17.5C8 17.8978 8.15804 18.2794 8.43934 18.5607C8.72064 18.842 9.10218 19 9.5 19ZM24 17.5C24 17.8978 23.842 18.2794 23.5607 18.5607C23.2794 18.842 22.8978 19 22.5 19C22.1022 19 21.7206 18.842 21.4393 18.5607C21.158 18.2794 21 17.8978 21 17.5C21 17.1022 21.158 16.7206 21.4393 16.4393C21.7206 16.158 22.1022 16 22.5 16C22.8978 16 23.2794 16.158 23.5607 16.4393C23.842 16.7206 24 17.1022 24 17.5Z" fill="white"/>
</svg>
